<mxfile host="app.diagrams.net" modified="2021-07-01T06:52:41.136Z" agent="5.0 (Windows NT 10.0; Win64; x64) AppleWebKit/537.36 (KHTML, like Gecko) Chrome/91.0.4472.124 Safari/537.36" etag="JkCNUTZRVJEfV7sMgl1s" version="14.8.3" type="github" pages="4">
  <diagram id="4-6XVk5jJWqWDubO6vJ1" name="Page-1">
    <mxGraphModel dx="925" dy="512" grid="0" gridSize="10" guides="1" tooltips="1" connect="1" arrows="1" fold="1" page="1" pageScale="1" pageWidth="827" pageHeight="1169" math="0" shadow="0">
      <root>
        <mxCell id="0" />
        <mxCell id="1" parent="0" />
        <mxCell id="F3OXO4A1nXRwvA7cXNUu-1" style="edgeStyle=none;rounded=0;orthogonalLoop=1;jettySize=auto;html=1;exitX=0.5;exitY=1;exitDx=0;exitDy=0;entryX=0.5;entryY=0;entryDx=0;entryDy=0;endArrow=none;endFill=0;fontColor=#000000;" edge="1" parent="1" source="F3OXO4A1nXRwvA7cXNUu-3" target="F3OXO4A1nXRwvA7cXNUu-6">
          <mxGeometry relative="1" as="geometry" />
        </mxCell>
        <mxCell id="F3OXO4A1nXRwvA7cXNUu-2" style="edgeStyle=none;rounded=0;orthogonalLoop=1;jettySize=auto;html=1;exitX=1;exitY=0.5;exitDx=0;exitDy=0;entryX=0;entryY=0.5;entryDx=0;entryDy=0;endArrow=none;endFill=0;fontColor=#000000;" edge="1" parent="1" source="F3OXO4A1nXRwvA7cXNUu-3" target="F3OXO4A1nXRwvA7cXNUu-4">
          <mxGeometry relative="1" as="geometry" />
        </mxCell>
        <mxCell id="F3OXO4A1nXRwvA7cXNUu-3" value="Raid Controller" style="rounded=1;whiteSpace=wrap;html=1;strokeColor=#006EAF;fillColor=#CCFFE6;" vertex="1" parent="1">
          <mxGeometry x="449.66668701171875" y="234.66665649414062" width="90" height="20" as="geometry" />
        </mxCell>
        <mxCell id="F3OXO4A1nXRwvA7cXNUu-4" value="Disk" style="rounded=1;whiteSpace=wrap;html=1;fillColor=#f5f5f5;strokeColor=#666666;fontColor=#333333;" vertex="1" parent="1">
          <mxGeometry x="559.6666870117188" y="234.66665649414062" width="50" height="20" as="geometry" />
        </mxCell>
        <mxCell id="F3OXO4A1nXRwvA7cXNUu-5" style="edgeStyle=none;rounded=0;orthogonalLoop=1;jettySize=auto;html=1;exitX=0.5;exitY=1;exitDx=0;exitDy=0;entryX=0.5;entryY=0;entryDx=0;entryDy=0;endArrow=none;endFill=0;fontColor=#000000;" edge="1" parent="1" source="F3OXO4A1nXRwvA7cXNUu-6" target="F3OXO4A1nXRwvA7cXNUu-7">
          <mxGeometry relative="1" as="geometry" />
        </mxCell>
        <mxCell id="F3OXO4A1nXRwvA7cXNUu-6" value="SAS Expander" style="rounded=1;whiteSpace=wrap;html=1;fontColor=#000000;fillColor=#FFB570;" vertex="1" parent="1">
          <mxGeometry x="449.66668701171875" y="267.6666564941406" width="90" height="20" as="geometry" />
        </mxCell>
        <mxCell id="F3OXO4A1nXRwvA7cXNUu-7" value="Disk" style="rounded=1;whiteSpace=wrap;html=1;fillColor=#f5f5f5;strokeColor=#666666;fontColor=#333333;" vertex="1" parent="1">
          <mxGeometry x="469.66668701171875" y="304.6666564941406" width="50" height="20" as="geometry" />
        </mxCell>
        <mxCell id="F3OXO4A1nXRwvA7cXNUu-8" style="edgeStyle=none;rounded=0;orthogonalLoop=1;jettySize=auto;html=1;exitX=0.5;exitY=1;exitDx=0;exitDy=0;entryX=0.5;entryY=0;entryDx=0;entryDy=0;endArrow=none;endFill=0;fontColor=#000000;" edge="1" parent="1" source="F3OXO4A1nXRwvA7cXNUu-10" target="F3OXO4A1nXRwvA7cXNUu-14">
          <mxGeometry relative="1" as="geometry" />
        </mxCell>
        <mxCell id="F3OXO4A1nXRwvA7cXNUu-9" style="edgeStyle=none;rounded=0;orthogonalLoop=1;jettySize=auto;html=1;exitX=1;exitY=0.5;exitDx=0;exitDy=0;entryX=0;entryY=0.5;entryDx=0;entryDy=0;endArrow=none;endFill=0;fontColor=#000000;" edge="1" parent="1" source="F3OXO4A1nXRwvA7cXNUu-10" target="F3OXO4A1nXRwvA7cXNUu-11">
          <mxGeometry relative="1" as="geometry" />
        </mxCell>
        <mxCell id="F3OXO4A1nXRwvA7cXNUu-10" value="Raid Controller" style="rounded=1;whiteSpace=wrap;html=1;strokeColor=#006EAF;fillColor=#CCFFE6;" vertex="1" parent="1">
          <mxGeometry x="424.66668701171875" y="534.6666564941406" width="90" height="20" as="geometry" />
        </mxCell>
        <mxCell id="F3OXO4A1nXRwvA7cXNUu-11" value="SAS/SATA" style="rounded=1;whiteSpace=wrap;html=1;fillColor=#f5f5f5;strokeColor=#666666;fontColor=#333333;" vertex="1" parent="1">
          <mxGeometry x="534.6666870117188" y="534.6666564941406" width="70" height="20" as="geometry" />
        </mxCell>
        <mxCell id="F3OXO4A1nXRwvA7cXNUu-12" style="edgeStyle=none;rounded=0;orthogonalLoop=1;jettySize=auto;html=1;exitX=0.25;exitY=1;exitDx=0;exitDy=0;entryX=0.5;entryY=0;entryDx=0;entryDy=0;endArrow=none;endFill=0;fontColor=#000000;" edge="1" parent="1" source="F3OXO4A1nXRwvA7cXNUu-14" target="F3OXO4A1nXRwvA7cXNUu-15">
          <mxGeometry relative="1" as="geometry" />
        </mxCell>
        <mxCell id="F3OXO4A1nXRwvA7cXNUu-13" style="edgeStyle=none;rounded=0;orthogonalLoop=1;jettySize=auto;html=1;exitX=0.75;exitY=1;exitDx=0;exitDy=0;entryX=0.5;entryY=0;entryDx=0;entryDy=0;endArrow=none;endFill=0;fontColor=#000000;" edge="1" parent="1" source="F3OXO4A1nXRwvA7cXNUu-14" target="F3OXO4A1nXRwvA7cXNUu-16">
          <mxGeometry relative="1" as="geometry" />
        </mxCell>
        <mxCell id="F3OXO4A1nXRwvA7cXNUu-14" value="SAS Expander" style="rounded=1;whiteSpace=wrap;html=1;fontColor=#000000;fillColor=#FFB570;" vertex="1" parent="1">
          <mxGeometry x="424.66668701171875" y="574.6666564941406" width="90" height="20" as="geometry" />
        </mxCell>
        <mxCell id="F3OXO4A1nXRwvA7cXNUu-15" value="SAS drives. Mix of 6G/12G SSD/HDD" style="rounded=1;whiteSpace=wrap;html=1;fillColor=#f5f5f5;strokeColor=#666666;fontColor=#333333;" vertex="1" parent="1">
          <mxGeometry x="374.66668701171875" y="614.6666564941406" width="90" height="50" as="geometry" />
        </mxCell>
        <mxCell id="F3OXO4A1nXRwvA7cXNUu-16" value="SATA drives. Mix of 6G SSD/HDD" style="rounded=1;whiteSpace=wrap;html=1;strokeColor=#666666;fontColor=#333333;fillColor=#666666;" vertex="1" parent="1">
          <mxGeometry x="476.66668701171875" y="614.6666564941406" width="98" height="50" as="geometry" />
        </mxCell>
        <mxCell id="F3OXO4A1nXRwvA7cXNUu-17" style="edgeStyle=none;rounded=0;orthogonalLoop=1;jettySize=auto;html=1;exitX=0.5;exitY=1;exitDx=0;exitDy=0;entryX=0.5;entryY=0;entryDx=0;entryDy=0;endArrow=none;endFill=0;fontColor=#000000;" edge="1" parent="1" source="F3OXO4A1nXRwvA7cXNUu-20" target="F3OXO4A1nXRwvA7cXNUu-23">
          <mxGeometry relative="1" as="geometry" />
        </mxCell>
        <mxCell id="F3OXO4A1nXRwvA7cXNUu-18" style="edgeStyle=none;rounded=0;orthogonalLoop=1;jettySize=auto;html=1;exitX=1;exitY=0.5;exitDx=0;exitDy=0;entryX=0;entryY=0.5;entryDx=0;entryDy=0;endArrow=none;endFill=0;fontColor=#000000;" edge="1" parent="1" source="F3OXO4A1nXRwvA7cXNUu-20" target="F3OXO4A1nXRwvA7cXNUu-21">
          <mxGeometry relative="1" as="geometry" />
        </mxCell>
        <mxCell id="F3OXO4A1nXRwvA7cXNUu-19" style="edgeStyle=none;rounded=0;orthogonalLoop=1;jettySize=auto;html=1;exitX=1;exitY=1;exitDx=0;exitDy=0;entryX=0;entryY=0.5;entryDx=0;entryDy=0;endArrow=none;endFill=0;fontColor=#000000;" edge="1" parent="1" source="F3OXO4A1nXRwvA7cXNUu-20" target="F3OXO4A1nXRwvA7cXNUu-26">
          <mxGeometry relative="1" as="geometry" />
        </mxCell>
        <mxCell id="F3OXO4A1nXRwvA7cXNUu-20" value="Raid Controller" style="rounded=1;whiteSpace=wrap;html=1;strokeColor=#006EAF;fillColor=#CCFFE6;" vertex="1" parent="1">
          <mxGeometry x="424.66668701171875" y="389.6666564941406" width="90" height="20" as="geometry" />
        </mxCell>
        <mxCell id="F3OXO4A1nXRwvA7cXNUu-21" value="SAS/SATA" style="rounded=1;whiteSpace=wrap;html=1;fillColor=#f5f5f5;strokeColor=#666666;fontColor=#333333;" vertex="1" parent="1">
          <mxGeometry x="534.6666870117188" y="389.6666564941406" width="70" height="20" as="geometry" />
        </mxCell>
        <mxCell id="F3OXO4A1nXRwvA7cXNUu-22" style="edgeStyle=none;rounded=0;orthogonalLoop=1;jettySize=auto;html=1;exitX=0.5;exitY=1;exitDx=0;exitDy=0;entryX=0.5;entryY=0;entryDx=0;entryDy=0;endArrow=none;endFill=0;fontColor=#000000;" edge="1" parent="1" source="F3OXO4A1nXRwvA7cXNUu-23" target="F3OXO4A1nXRwvA7cXNUu-24">
          <mxGeometry relative="1" as="geometry" />
        </mxCell>
        <mxCell id="F3OXO4A1nXRwvA7cXNUu-23" value="SAS Expander" style="rounded=1;whiteSpace=wrap;html=1;fontColor=#000000;fillColor=#FFB570;" vertex="1" parent="1">
          <mxGeometry x="424.66668701171875" y="429.6666564941406" width="90" height="20" as="geometry" />
        </mxCell>
        <mxCell id="F3OXO4A1nXRwvA7cXNUu-24" value="12G SSD" style="rounded=1;whiteSpace=wrap;html=1;fillColor=#f5f5f5;strokeColor=#666666;fontColor=#333333;" vertex="1" parent="1">
          <mxGeometry x="444.66668701171875" y="469.6666564941406" width="50" height="30" as="geometry" />
        </mxCell>
        <mxCell id="F3OXO4A1nXRwvA7cXNUu-25" value="" style="shape=flexArrow;endArrow=classic;html=1;fontColor=#000000;width=12;endSize=3.67;" edge="1" parent="1">
          <mxGeometry width="50" height="50" relative="1" as="geometry">
            <mxPoint x="494.16668701171875" y="332.6666564941406" as="sourcePoint" />
            <mxPoint x="494.16668701171875" y="372.6666564941406" as="targetPoint" />
          </mxGeometry>
        </mxCell>
        <mxCell id="F3OXO4A1nXRwvA7cXNUu-26" value="NVMe drives" style="rounded=1;whiteSpace=wrap;html=1;fillColor=#f5f5f5;strokeColor=#666666;fontColor=#333333;" vertex="1" parent="1">
          <mxGeometry x="534.6666870117188" y="419.6666564941406" width="80" height="20" as="geometry" />
        </mxCell>
        <mxCell id="F3OXO4A1nXRwvA7cXNUu-27" style="edgeStyle=none;rounded=0;orthogonalLoop=1;jettySize=auto;html=1;exitX=1;exitY=1;exitDx=0;exitDy=0;entryX=0;entryY=0.5;entryDx=0;entryDy=0;endArrow=none;endFill=0;fontColor=#000000;" edge="1" parent="1" target="F3OXO4A1nXRwvA7cXNUu-28">
          <mxGeometry relative="1" as="geometry">
            <mxPoint x="514.6666870117188" y="554.6666564941406" as="sourcePoint" />
          </mxGeometry>
        </mxCell>
        <mxCell id="F3OXO4A1nXRwvA7cXNUu-28" value="NVMe drives" style="rounded=1;whiteSpace=wrap;html=1;fillColor=#f5f5f5;strokeColor=#666666;fontColor=#333333;" vertex="1" parent="1">
          <mxGeometry x="534.6666870117188" y="564.6666564941406" width="80" height="20" as="geometry" />
        </mxCell>
        <mxCell id="F3OXO4A1nXRwvA7cXNUu-29" style="edgeStyle=none;rounded=0;orthogonalLoop=1;jettySize=auto;html=1;exitX=0.5;exitY=1;exitDx=0;exitDy=0;entryX=0.25;entryY=0;entryDx=0;entryDy=0;endArrow=none;endFill=0;fontColor=#000000;" edge="1" parent="1" source="F3OXO4A1nXRwvA7cXNUu-30" target="F3OXO4A1nXRwvA7cXNUu-35">
          <mxGeometry relative="1" as="geometry" />
        </mxCell>
        <mxCell id="F3OXO4A1nXRwvA7cXNUu-30" value="Raid Controller" style="rounded=1;whiteSpace=wrap;html=1;strokeColor=#006EAF;fillColor=#CCFFE6;" vertex="1" parent="1">
          <mxGeometry x="790.6666870117188" y="235.66665649414062" width="90" height="20" as="geometry" />
        </mxCell>
        <mxCell id="F3OXO4A1nXRwvA7cXNUu-31" style="edgeStyle=none;rounded=0;orthogonalLoop=1;jettySize=auto;html=1;exitX=0.5;exitY=1;exitDx=0;exitDy=0;endArrow=none;endFill=0;fontColor=#000000;" edge="1" parent="1" source="F3OXO4A1nXRwvA7cXNUu-32">
          <mxGeometry relative="1" as="geometry">
            <mxPoint x="912.6666870117188" y="275.6666564941406" as="targetPoint" />
          </mxGeometry>
        </mxCell>
        <mxCell id="F3OXO4A1nXRwvA7cXNUu-32" value="Raid Controller" style="rounded=1;whiteSpace=wrap;html=1;strokeColor=#006EAF;fillColor=#CCFFE6;" vertex="1" parent="1">
          <mxGeometry x="910.6666870117188" y="234.66665649414062" width="90" height="20" as="geometry" />
        </mxCell>
        <mxCell id="F3OXO4A1nXRwvA7cXNUu-33" style="edgeStyle=none;rounded=0;orthogonalLoop=1;jettySize=auto;html=1;exitX=0.25;exitY=1;exitDx=0;exitDy=0;endArrow=none;endFill=0;fontColor=#000000;" edge="1" parent="1" source="F3OXO4A1nXRwvA7cXNUu-35">
          <mxGeometry relative="1" as="geometry">
            <mxPoint x="852.6666870117188" y="315.6666564941406" as="targetPoint" />
          </mxGeometry>
        </mxCell>
        <mxCell id="F3OXO4A1nXRwvA7cXNUu-34" style="edgeStyle=none;rounded=0;orthogonalLoop=1;jettySize=auto;html=1;exitX=0.75;exitY=1;exitDx=0;exitDy=0;entryX=0.5;entryY=0;entryDx=0;entryDy=0;endArrow=none;endFill=0;fontColor=#000000;" edge="1" parent="1" source="F3OXO4A1nXRwvA7cXNUu-35" target="F3OXO4A1nXRwvA7cXNUu-37">
          <mxGeometry relative="1" as="geometry" />
        </mxCell>
        <mxCell id="F3OXO4A1nXRwvA7cXNUu-35" value="SAS Expander" style="rounded=1;whiteSpace=wrap;html=1;fontColor=#000000;fillColor=#FFB570;" vertex="1" parent="1">
          <mxGeometry x="852.6666870117188" y="276.6666564941406" width="90" height="20" as="geometry" />
        </mxCell>
        <mxCell id="F3OXO4A1nXRwvA7cXNUu-36" value="SAS drives. Mix of 6G/12G SSD/HDD" style="rounded=1;whiteSpace=wrap;html=1;fillColor=#f5f5f5;strokeColor=#666666;fontColor=#333333;" vertex="1" parent="1">
          <mxGeometry x="800.6666870117188" y="316.6666564941406" width="90" height="50" as="geometry" />
        </mxCell>
        <mxCell id="F3OXO4A1nXRwvA7cXNUu-37" value="SATA drives. Mix of 6G SSD/HDD" style="rounded=1;whiteSpace=wrap;html=1;strokeColor=#666666;fontColor=#333333;fillColor=#666666;" vertex="1" parent="1">
          <mxGeometry x="906.6666870117188" y="316.6666564941406" width="98" height="50" as="geometry" />
        </mxCell>
        <mxCell id="F3OXO4A1nXRwvA7cXNUu-38" value="&lt;font style=&quot;font-size: 24px&quot;&gt;Hardware&lt;/font&gt;" style="rounded=1;whiteSpace=wrap;html=1;fillColor=#f5f5f5;strokeColor=#666666;fontColor=#333333;" vertex="1" parent="1">
          <mxGeometry x="774.6666870117188" y="584.6666564941406" width="230" height="40" as="geometry" />
        </mxCell>
        <mxCell id="F3OXO4A1nXRwvA7cXNUu-39" value="FreeRTOS" style="rounded=1;whiteSpace=wrap;html=1;fillColor=#dae8fc;strokeColor=#6c8ebf;" vertex="1" parent="1">
          <mxGeometry x="774.6666870117188" y="544.6666564941406" width="110" height="40" as="geometry" />
        </mxCell>
        <mxCell id="F3OXO4A1nXRwvA7cXNUu-40" value="Shell Lib" style="rounded=1;whiteSpace=wrap;html=1;fillColor=#fff2cc;strokeColor=#d6b656;" vertex="1" parent="1">
          <mxGeometry x="774.6666870117188" y="504.6666564941406" width="170" height="40" as="geometry" />
        </mxCell>
        <mxCell id="F3OXO4A1nXRwvA7cXNUu-41" value="Driver/BSP" style="rounded=1;whiteSpace=wrap;html=1;fillColor=#dae8fc;strokeColor=#6c8ebf;" vertex="1" parent="1">
          <mxGeometry x="893.6666870117188" y="544.6666564941406" width="110" height="40" as="geometry" />
        </mxCell>
        <mxCell id="F3OXO4A1nXRwvA7cXNUu-42" value="Utils" style="rounded=1;whiteSpace=wrap;html=1;fillColor=#fff2cc;strokeColor=#d6b656;" vertex="1" parent="1">
          <mxGeometry x="944.6666870117188" y="504.6666564941406" width="60" height="40" as="geometry" />
        </mxCell>
        <mxCell id="F3OXO4A1nXRwvA7cXNUu-43" value="App" style="rounded=1;whiteSpace=wrap;html=1;fillColor=#f8cecc;strokeColor=#b85450;" vertex="1" parent="1">
          <mxGeometry x="774.6666870117188" y="464.6666564941406" width="110" height="40" as="geometry" />
        </mxCell>
        <mxCell id="F3OXO4A1nXRwvA7cXNUu-44" value="Test Code" style="rounded=1;whiteSpace=wrap;html=1;fillColor=#e1d5e7;strokeColor=#9673a6;" vertex="1" parent="1">
          <mxGeometry x="894.6666870117188" y="464.6666564941406" width="110" height="40" as="geometry" />
        </mxCell>
        <mxCell id="F3OXO4A1nXRwvA7cXNUu-46" value="HBA Controller" style="rounded=1;whiteSpace=wrap;html=1;strokeColor=#006EAF;fillColor=#CCFFE6;" vertex="1" parent="1">
          <mxGeometry x="159.99668701171873" y="199.9966564941406" width="90" height="20" as="geometry" />
        </mxCell>
        <mxCell id="F3OXO4A1nXRwvA7cXNUu-48" value="" style="endArrow=none;html=1;entryX=0.498;entryY=1.021;entryDx=0;entryDy=0;entryPerimeter=0;exitX=0.5;exitY=0;exitDx=0;exitDy=0;" edge="1" parent="1" target="F3OXO4A1nXRwvA7cXNUu-46">
          <mxGeometry width="50" height="50" relative="1" as="geometry">
            <mxPoint x="204.99668701171868" y="247.66665649414062" as="sourcePoint" />
            <mxPoint x="200" y="220" as="targetPoint" />
          </mxGeometry>
        </mxCell>
        <mxCell id="F3OXO4A1nXRwvA7cXNUu-49" value="" style="endArrow=none;html=1;entryX=0.498;entryY=1.021;entryDx=0;entryDy=0;entryPerimeter=0;exitX=0.5;exitY=0;exitDx=0;exitDy=0;" edge="1" parent="1">
          <mxGeometry width="50" height="50" relative="1" as="geometry">
            <mxPoint x="204.99668701171868" y="296.6666564941406" as="sourcePoint" />
            <mxPoint x="204.82668701171872" y="267.66665649414057" as="targetPoint" />
          </mxGeometry>
        </mxCell>
        <mxCell id="F3OXO4A1nXRwvA7cXNUu-50" value="SAS/SATA SSD/HDD" style="rounded=1;whiteSpace=wrap;html=1;fillColor=#dae8fc;strokeColor=#6c8ebf;" vertex="1" parent="1">
          <mxGeometry x="10.5" y="296.67" width="120" height="20" as="geometry" />
        </mxCell>
        <mxCell id="F3OXO4A1nXRwvA7cXNUu-54" value="SAS/SATA SSD/HDD" style="rounded=1;whiteSpace=wrap;html=1;fillColor=#dae8fc;strokeColor=#6c8ebf;" vertex="1" parent="1">
          <mxGeometry x="10" y="247.67" width="121" height="20" as="geometry" />
        </mxCell>
        <mxCell id="F3OXO4A1nXRwvA7cXNUu-58" value="" style="endArrow=none;html=1;entryX=0;entryY=0.5;entryDx=0;entryDy=0;exitX=1;exitY=0.5;exitDx=0;exitDy=0;" edge="1" parent="1" source="F3OXO4A1nXRwvA7cXNUu-54">
          <mxGeometry width="50" height="50" relative="1" as="geometry">
            <mxPoint x="132" y="258" as="sourcePoint" />
            <mxPoint x="159.99668701171868" y="257.6666564941406" as="targetPoint" />
          </mxGeometry>
        </mxCell>
        <mxCell id="F3OXO4A1nXRwvA7cXNUu-61" value="" style="endArrow=none;html=1;entryX=0;entryY=0.5;entryDx=0;entryDy=0;exitX=1;exitY=0.5;exitDx=0;exitDy=0;" edge="1" parent="1">
          <mxGeometry width="50" height="50" relative="1" as="geometry">
            <mxPoint x="130.50000000000006" y="306.53" as="sourcePoint" />
            <mxPoint x="159.49668701171873" y="306.5266564941407" as="targetPoint" />
          </mxGeometry>
        </mxCell>
        <mxCell id="F3OXO4A1nXRwvA7cXNUu-62" value="DUT" style="rounded=1;whiteSpace=wrap;html=1;fontColor=#000000;fillColor=#FFB570;" vertex="1" parent="1">
          <mxGeometry x="159.99668701171873" y="296.6666564941406" width="90" height="20" as="geometry" />
        </mxCell>
        <mxCell id="F3OXO4A1nXRwvA7cXNUu-63" value="LSI Expander" style="rounded=1;whiteSpace=wrap;html=1;fillColor=#f8cecc;strokeColor=#b85450;" vertex="1" parent="1">
          <mxGeometry x="159.99668701171873" y="247.66665649414062" width="90" height="20" as="geometry" />
        </mxCell>
      </root>
    </mxGraphModel>
  </diagram>
  <diagram name="第 2 页" id="lgzeJ1i18GzzGQXNnA7A">
    <mxGraphModel dx="771" dy="427" grid="0" gridSize="10" guides="1" tooltips="1" connect="1" arrows="1" fold="1" page="1" pageScale="1" pageWidth="827" pageHeight="1169" math="0" shadow="0">
      <root>
        <mxCell id="71lCy1hKlNE4NQ7uuJaK-0" />
        <mxCell id="71lCy1hKlNE4NQ7uuJaK-1" parent="71lCy1hKlNE4NQ7uuJaK-0" />
        <mxCell id="YM3uh46fASyaVgvuQcKW-0" value="DUT" style="rounded=1;whiteSpace=wrap;html=1;" parent="71lCy1hKlNE4NQ7uuJaK-1" vertex="1">
          <mxGeometry x="189" y="40" width="101" height="80" as="geometry" />
        </mxCell>
        <mxCell id="YM3uh46fASyaVgvuQcKW-1" value="" style="endArrow=none;html=1;" parent="71lCy1hKlNE4NQ7uuJaK-1" edge="1">
          <mxGeometry width="50" height="50" relative="1" as="geometry">
            <mxPoint x="290" y="60" as="sourcePoint" />
            <mxPoint x="350" y="60" as="targetPoint" />
          </mxGeometry>
        </mxCell>
        <mxCell id="YM3uh46fASyaVgvuQcKW-2" value="SAS x4" style="edgeLabel;html=1;align=center;verticalAlign=middle;resizable=0;points=[];" parent="YM3uh46fASyaVgvuQcKW-1" vertex="1" connectable="0">
          <mxGeometry x="0.5" y="1" relative="1" as="geometry">
            <mxPoint as="offset" />
          </mxGeometry>
        </mxCell>
        <mxCell id="YM3uh46fASyaVgvuQcKW-3" value="" style="endArrow=none;html=1;" parent="71lCy1hKlNE4NQ7uuJaK-1" edge="1">
          <mxGeometry width="50" height="50" relative="1" as="geometry">
            <mxPoint x="290" y="80" as="sourcePoint" />
            <mxPoint x="350" y="80" as="targetPoint" />
          </mxGeometry>
        </mxCell>
        <mxCell id="YM3uh46fASyaVgvuQcKW-4" value="SAS x4" style="edgeLabel;html=1;align=center;verticalAlign=middle;resizable=0;points=[];" parent="YM3uh46fASyaVgvuQcKW-3" vertex="1" connectable="0">
          <mxGeometry x="0.5" y="1" relative="1" as="geometry">
            <mxPoint as="offset" />
          </mxGeometry>
        </mxCell>
        <mxCell id="YM3uh46fASyaVgvuQcKW-5" value="" style="endArrow=none;html=1;" parent="71lCy1hKlNE4NQ7uuJaK-1" edge="1">
          <mxGeometry width="50" height="50" relative="1" as="geometry">
            <mxPoint x="290" y="100" as="sourcePoint" />
            <mxPoint x="350" y="100" as="targetPoint" />
          </mxGeometry>
        </mxCell>
        <mxCell id="YM3uh46fASyaVgvuQcKW-6" value="SAS x4" style="edgeLabel;html=1;align=center;verticalAlign=middle;resizable=0;points=[];" parent="YM3uh46fASyaVgvuQcKW-5" vertex="1" connectable="0">
          <mxGeometry x="0.5" y="1" relative="1" as="geometry">
            <mxPoint as="offset" />
          </mxGeometry>
        </mxCell>
        <mxCell id="YM3uh46fASyaVgvuQcKW-7" value="" style="endArrow=none;html=1;" parent="71lCy1hKlNE4NQ7uuJaK-1" edge="1">
          <mxGeometry width="50" height="50" relative="1" as="geometry">
            <mxPoint x="140" y="60" as="sourcePoint" />
            <mxPoint x="189" y="60" as="targetPoint" />
          </mxGeometry>
        </mxCell>
        <mxCell id="YM3uh46fASyaVgvuQcKW-8" value="QSPI x1" style="edgeLabel;html=1;align=center;verticalAlign=middle;resizable=0;points=[];" parent="YM3uh46fASyaVgvuQcKW-7" vertex="1" connectable="0">
          <mxGeometry x="-0.7949" y="-1" relative="1" as="geometry">
            <mxPoint as="offset" />
          </mxGeometry>
        </mxCell>
        <mxCell id="YM3uh46fASyaVgvuQcKW-9" value="" style="endArrow=none;html=1;" parent="71lCy1hKlNE4NQ7uuJaK-1" edge="1">
          <mxGeometry width="50" height="50" relative="1" as="geometry">
            <mxPoint x="140" y="70" as="sourcePoint" />
            <mxPoint x="189" y="70" as="targetPoint" />
          </mxGeometry>
        </mxCell>
        <mxCell id="YM3uh46fASyaVgvuQcKW-10" value="I2C x2" style="edgeLabel;html=1;align=center;verticalAlign=middle;resizable=0;points=[];" parent="YM3uh46fASyaVgvuQcKW-9" vertex="1" connectable="0">
          <mxGeometry x="-0.7949" y="-1" relative="1" as="geometry">
            <mxPoint as="offset" />
          </mxGeometry>
        </mxCell>
        <mxCell id="YM3uh46fASyaVgvuQcKW-11" value="" style="endArrow=none;html=1;" parent="71lCy1hKlNE4NQ7uuJaK-1" edge="1">
          <mxGeometry width="50" height="50" relative="1" as="geometry">
            <mxPoint x="140" y="80" as="sourcePoint" />
            <mxPoint x="189" y="80" as="targetPoint" />
          </mxGeometry>
        </mxCell>
        <mxCell id="YM3uh46fASyaVgvuQcKW-12" value="PWM x1" style="edgeLabel;html=1;align=center;verticalAlign=middle;resizable=0;points=[];" parent="YM3uh46fASyaVgvuQcKW-11" vertex="1" connectable="0">
          <mxGeometry x="-0.7949" y="-1" relative="1" as="geometry">
            <mxPoint as="offset" />
          </mxGeometry>
        </mxCell>
        <mxCell id="YM3uh46fASyaVgvuQcKW-13" value="" style="endArrow=none;html=1;" parent="71lCy1hKlNE4NQ7uuJaK-1" edge="1">
          <mxGeometry width="50" height="50" relative="1" as="geometry">
            <mxPoint x="140" y="89.88000000000011" as="sourcePoint" />
            <mxPoint x="189" y="89.88000000000011" as="targetPoint" />
          </mxGeometry>
        </mxCell>
        <mxCell id="YM3uh46fASyaVgvuQcKW-14" value="UART x1" style="edgeLabel;html=1;align=center;verticalAlign=middle;resizable=0;points=[];" parent="YM3uh46fASyaVgvuQcKW-13" vertex="1" connectable="0">
          <mxGeometry x="-0.7949" y="-1" relative="1" as="geometry">
            <mxPoint as="offset" />
          </mxGeometry>
        </mxCell>
        <mxCell id="YM3uh46fASyaVgvuQcKW-15" value="" style="endArrow=none;html=1;" parent="71lCy1hKlNE4NQ7uuJaK-1" edge="1">
          <mxGeometry width="50" height="50" relative="1" as="geometry">
            <mxPoint x="140" y="99.88000000000011" as="sourcePoint" />
            <mxPoint x="189" y="99.88000000000011" as="targetPoint" />
          </mxGeometry>
        </mxCell>
        <mxCell id="YM3uh46fASyaVgvuQcKW-16" value="JTAG x1" style="edgeLabel;html=1;align=center;verticalAlign=middle;resizable=0;points=[];" parent="YM3uh46fASyaVgvuQcKW-15" vertex="1" connectable="0">
          <mxGeometry x="-0.7949" y="-1" relative="1" as="geometry">
            <mxPoint as="offset" />
          </mxGeometry>
        </mxCell>
        <mxCell id="NguuG2lEEzdoXQna0SC9-2" value="HBA Controller" style="rounded=1;whiteSpace=wrap;html=1;strokeColor=#006EAF;fillColor=#CCFFE6;" parent="71lCy1hKlNE4NQ7uuJaK-1" vertex="1">
          <mxGeometry x="70" y="160" width="90" height="20" as="geometry" />
        </mxCell>
        <mxCell id="K-oBcJzlDwcCKNYCo3xG-0" style="edgeStyle=none;rounded=0;orthogonalLoop=1;jettySize=auto;html=1;exitX=0.5;exitY=1;exitDx=0;exitDy=0;entryX=0.5;entryY=0;entryDx=0;entryDy=0;endArrow=none;endFill=0;fontColor=#000000;" parent="71lCy1hKlNE4NQ7uuJaK-1" source="K-oBcJzlDwcCKNYCo3xG-1" target="K-oBcJzlDwcCKNYCo3xG-4" edge="1">
          <mxGeometry relative="1" as="geometry" />
        </mxCell>
        <mxCell id="K-oBcJzlDwcCKNYCo3xG-1" value="HBA Controller" style="rounded=1;whiteSpace=wrap;html=1;strokeColor=#006EAF;fillColor=#CCFFE6;" parent="71lCy1hKlNE4NQ7uuJaK-1" vertex="1">
          <mxGeometry x="510" y="20" width="90" height="20" as="geometry" />
        </mxCell>
        <mxCell id="K-oBcJzlDwcCKNYCo3xG-2" style="edgeStyle=none;rounded=0;orthogonalLoop=1;jettySize=auto;html=1;exitX=0.25;exitY=1;exitDx=0;exitDy=0;entryX=0.5;entryY=0;entryDx=0;entryDy=0;endArrow=none;endFill=0;fontColor=#000000;" parent="71lCy1hKlNE4NQ7uuJaK-1" source="K-oBcJzlDwcCKNYCo3xG-4" target="K-oBcJzlDwcCKNYCo3xG-5" edge="1">
          <mxGeometry relative="1" as="geometry" />
        </mxCell>
        <mxCell id="K-oBcJzlDwcCKNYCo3xG-3" style="edgeStyle=none;rounded=0;orthogonalLoop=1;jettySize=auto;html=1;exitX=0.75;exitY=1;exitDx=0;exitDy=0;entryX=0.5;entryY=0;entryDx=0;entryDy=0;endArrow=none;endFill=0;fontColor=#000000;" parent="71lCy1hKlNE4NQ7uuJaK-1" source="K-oBcJzlDwcCKNYCo3xG-4" target="K-oBcJzlDwcCKNYCo3xG-6" edge="1">
          <mxGeometry relative="1" as="geometry" />
        </mxCell>
        <mxCell id="K-oBcJzlDwcCKNYCo3xG-4" value="DUT" style="rounded=1;whiteSpace=wrap;html=1;fontColor=#000000;fillColor=#FFB570;" parent="71lCy1hKlNE4NQ7uuJaK-1" vertex="1">
          <mxGeometry x="510" y="60" width="90" height="20" as="geometry" />
        </mxCell>
        <mxCell id="K-oBcJzlDwcCKNYCo3xG-5" value="SAS SSD/HDD" style="rounded=1;whiteSpace=wrap;html=1;fillColor=#dae8fc;strokeColor=#6c8ebf;" parent="71lCy1hKlNE4NQ7uuJaK-1" vertex="1">
          <mxGeometry x="460" y="100" width="90" height="20" as="geometry" />
        </mxCell>
        <mxCell id="K-oBcJzlDwcCKNYCo3xG-6" value="SATA SSD/HDD" style="rounded=1;whiteSpace=wrap;html=1;strokeColor=#82b366;fillColor=#d5e8d4;" parent="71lCy1hKlNE4NQ7uuJaK-1" vertex="1">
          <mxGeometry x="560" y="100" width="90" height="20" as="geometry" />
        </mxCell>
        <mxCell id="K-oBcJzlDwcCKNYCo3xG-13" style="edgeStyle=none;rounded=0;orthogonalLoop=1;jettySize=auto;html=1;exitX=0.25;exitY=1;exitDx=0;exitDy=0;entryX=0.5;entryY=0;entryDx=0;entryDy=0;endArrow=none;endFill=0;fontColor=#000000;" parent="71lCy1hKlNE4NQ7uuJaK-1" source="K-oBcJzlDwcCKNYCo3xG-15" target="K-oBcJzlDwcCKNYCo3xG-16" edge="1">
          <mxGeometry relative="1" as="geometry" />
        </mxCell>
        <mxCell id="K-oBcJzlDwcCKNYCo3xG-14" style="edgeStyle=none;rounded=0;orthogonalLoop=1;jettySize=auto;html=1;exitX=0.75;exitY=1;exitDx=0;exitDy=0;entryX=0.5;entryY=0;entryDx=0;entryDy=0;endArrow=none;endFill=0;fontColor=#000000;" parent="71lCy1hKlNE4NQ7uuJaK-1" source="K-oBcJzlDwcCKNYCo3xG-15" target="K-oBcJzlDwcCKNYCo3xG-17" edge="1">
          <mxGeometry relative="1" as="geometry" />
        </mxCell>
        <mxCell id="K-oBcJzlDwcCKNYCo3xG-15" value="DUT" style="rounded=1;whiteSpace=wrap;html=1;fontColor=#000000;fillColor=#FFB570;" parent="71lCy1hKlNE4NQ7uuJaK-1" vertex="1">
          <mxGeometry x="70" y="240" width="90" height="20" as="geometry" />
        </mxCell>
        <mxCell id="K-oBcJzlDwcCKNYCo3xG-16" value="SAS SSD/HDD" style="rounded=1;whiteSpace=wrap;html=1;fillColor=#dae8fc;strokeColor=#6c8ebf;" parent="71lCy1hKlNE4NQ7uuJaK-1" vertex="1">
          <mxGeometry x="20" y="280" width="90" height="20" as="geometry" />
        </mxCell>
        <mxCell id="K-oBcJzlDwcCKNYCo3xG-17" value="SATA SSD/HDD" style="rounded=1;whiteSpace=wrap;html=1;strokeColor=#82b366;fillColor=#d5e8d4;" parent="71lCy1hKlNE4NQ7uuJaK-1" vertex="1">
          <mxGeometry x="120" y="280" width="90" height="20" as="geometry" />
        </mxCell>
        <mxCell id="K-oBcJzlDwcCKNYCo3xG-18" value="LSI Expander" style="rounded=1;whiteSpace=wrap;html=1;fillColor=#f8cecc;strokeColor=#b85450;" parent="71lCy1hKlNE4NQ7uuJaK-1" vertex="1">
          <mxGeometry x="70" y="200" width="90" height="20" as="geometry" />
        </mxCell>
        <mxCell id="K-oBcJzlDwcCKNYCo3xG-23" value="" style="endArrow=none;html=1;exitX=0.5;exitY=0;exitDx=0;exitDy=0;entryX=0.5;entryY=1;entryDx=0;entryDy=0;" parent="71lCy1hKlNE4NQ7uuJaK-1" source="K-oBcJzlDwcCKNYCo3xG-18" target="NguuG2lEEzdoXQna0SC9-2" edge="1">
          <mxGeometry width="50" height="50" relative="1" as="geometry">
            <mxPoint x="136" y="250" as="sourcePoint" />
            <mxPoint x="176" y="190" as="targetPoint" />
          </mxGeometry>
        </mxCell>
        <mxCell id="K-oBcJzlDwcCKNYCo3xG-24" value="" style="endArrow=none;html=1;exitX=0.5;exitY=0;exitDx=0;exitDy=0;entryX=0.5;entryY=1;entryDx=0;entryDy=0;" parent="71lCy1hKlNE4NQ7uuJaK-1" edge="1">
          <mxGeometry width="50" height="50" relative="1" as="geometry">
            <mxPoint x="114.88" y="240" as="sourcePoint" />
            <mxPoint x="114.88" y="219.99999999999994" as="targetPoint" />
          </mxGeometry>
        </mxCell>
        <mxCell id="K-oBcJzlDwcCKNYCo3xG-25" value="HBA Controller" style="rounded=1;whiteSpace=wrap;html=1;strokeColor=#006EAF;fillColor=#CCFFE6;" parent="71lCy1hKlNE4NQ7uuJaK-1" vertex="1">
          <mxGeometry x="73" y="350" width="90" height="20" as="geometry" />
        </mxCell>
        <mxCell id="K-oBcJzlDwcCKNYCo3xG-26" style="edgeStyle=none;rounded=0;orthogonalLoop=1;jettySize=auto;html=1;exitX=0.25;exitY=1;exitDx=0;exitDy=0;entryX=0.5;entryY=0;entryDx=0;entryDy=0;endArrow=none;endFill=0;fontColor=#000000;" parent="71lCy1hKlNE4NQ7uuJaK-1" source="K-oBcJzlDwcCKNYCo3xG-28" target="K-oBcJzlDwcCKNYCo3xG-29" edge="1">
          <mxGeometry relative="1" as="geometry" />
        </mxCell>
        <mxCell id="K-oBcJzlDwcCKNYCo3xG-27" style="edgeStyle=none;rounded=0;orthogonalLoop=1;jettySize=auto;html=1;exitX=0.75;exitY=1;exitDx=0;exitDy=0;entryX=0.5;entryY=0;entryDx=0;entryDy=0;endArrow=none;endFill=0;fontColor=#000000;" parent="71lCy1hKlNE4NQ7uuJaK-1" source="K-oBcJzlDwcCKNYCo3xG-28" target="K-oBcJzlDwcCKNYCo3xG-30" edge="1">
          <mxGeometry relative="1" as="geometry" />
        </mxCell>
        <mxCell id="K-oBcJzlDwcCKNYCo3xG-28" value="LSI Expander" style="rounded=1;whiteSpace=wrap;html=1;fillColor=#f8cecc;strokeColor=#b85450;" parent="71lCy1hKlNE4NQ7uuJaK-1" vertex="1">
          <mxGeometry x="73" y="390" width="90" height="20" as="geometry" />
        </mxCell>
        <mxCell id="K-oBcJzlDwcCKNYCo3xG-29" value="SAS SSD/HDD" style="rounded=1;whiteSpace=wrap;html=1;fillColor=#dae8fc;strokeColor=#6c8ebf;" parent="71lCy1hKlNE4NQ7uuJaK-1" vertex="1">
          <mxGeometry x="23" y="430" width="90" height="20" as="geometry" />
        </mxCell>
        <mxCell id="K-oBcJzlDwcCKNYCo3xG-30" value="SATA SSD/HDD" style="rounded=1;whiteSpace=wrap;html=1;strokeColor=#82b366;fillColor=#d5e8d4;" parent="71lCy1hKlNE4NQ7uuJaK-1" vertex="1">
          <mxGeometry x="120" y="430" width="90" height="20" as="geometry" />
        </mxCell>
        <mxCell id="K-oBcJzlDwcCKNYCo3xG-38" value="DUT" style="rounded=1;whiteSpace=wrap;html=1;fontColor=#000000;fillColor=#FFB570;" parent="71lCy1hKlNE4NQ7uuJaK-1" vertex="1">
          <mxGeometry x="190" y="390" width="90" height="20" as="geometry" />
        </mxCell>
        <mxCell id="K-oBcJzlDwcCKNYCo3xG-39" style="edgeStyle=none;rounded=0;orthogonalLoop=1;jettySize=auto;html=1;exitX=0.25;exitY=1;exitDx=0;exitDy=0;entryX=0.5;entryY=0;entryDx=0;entryDy=0;endArrow=none;endFill=0;fontColor=#000000;" parent="71lCy1hKlNE4NQ7uuJaK-1" source="K-oBcJzlDwcCKNYCo3xG-41" target="K-oBcJzlDwcCKNYCo3xG-42" edge="1">
          <mxGeometry relative="1" as="geometry" />
        </mxCell>
        <mxCell id="K-oBcJzlDwcCKNYCo3xG-40" style="edgeStyle=none;rounded=0;orthogonalLoop=1;jettySize=auto;html=1;exitX=0.75;exitY=1;exitDx=0;exitDy=0;entryX=0.5;entryY=0;entryDx=0;entryDy=0;endArrow=none;endFill=0;fontColor=#000000;" parent="71lCy1hKlNE4NQ7uuJaK-1" source="K-oBcJzlDwcCKNYCo3xG-41" target="K-oBcJzlDwcCKNYCo3xG-43" edge="1">
          <mxGeometry relative="1" as="geometry" />
        </mxCell>
        <mxCell id="K-oBcJzlDwcCKNYCo3xG-41" value="LSI Expander" style="rounded=1;whiteSpace=wrap;html=1;fillColor=#f8cecc;strokeColor=#b85450;" parent="71lCy1hKlNE4NQ7uuJaK-1" vertex="1">
          <mxGeometry x="310" y="390" width="90" height="20" as="geometry" />
        </mxCell>
        <mxCell id="K-oBcJzlDwcCKNYCo3xG-42" value="SAS SSD/HDD" style="rounded=1;whiteSpace=wrap;html=1;fillColor=#dae8fc;strokeColor=#6c8ebf;" parent="71lCy1hKlNE4NQ7uuJaK-1" vertex="1">
          <mxGeometry x="260" y="430" width="90" height="20" as="geometry" />
        </mxCell>
        <mxCell id="K-oBcJzlDwcCKNYCo3xG-43" value="SATA SSD/HDD" style="rounded=1;whiteSpace=wrap;html=1;strokeColor=#82b366;fillColor=#d5e8d4;" parent="71lCy1hKlNE4NQ7uuJaK-1" vertex="1">
          <mxGeometry x="360" y="430" width="90" height="20" as="geometry" />
        </mxCell>
        <mxCell id="K-oBcJzlDwcCKNYCo3xG-45" value="" style="endArrow=none;html=1;exitX=0.5;exitY=0;exitDx=0;exitDy=0;entryX=0.5;entryY=1;entryDx=0;entryDy=0;" parent="71lCy1hKlNE4NQ7uuJaK-1" source="K-oBcJzlDwcCKNYCo3xG-28" target="K-oBcJzlDwcCKNYCo3xG-25" edge="1">
          <mxGeometry width="50" height="50" relative="1" as="geometry">
            <mxPoint x="18" y="400" as="sourcePoint" />
            <mxPoint x="68" y="350" as="targetPoint" />
          </mxGeometry>
        </mxCell>
        <mxCell id="K-oBcJzlDwcCKNYCo3xG-46" value="" style="endArrow=none;html=1;exitX=1;exitY=0.5;exitDx=0;exitDy=0;" parent="71lCy1hKlNE4NQ7uuJaK-1" source="K-oBcJzlDwcCKNYCo3xG-28" target="K-oBcJzlDwcCKNYCo3xG-38" edge="1">
          <mxGeometry width="50" height="50" relative="1" as="geometry">
            <mxPoint x="238" y="470" as="sourcePoint" />
            <mxPoint x="288" y="420" as="targetPoint" />
          </mxGeometry>
        </mxCell>
        <mxCell id="K-oBcJzlDwcCKNYCo3xG-47" value="" style="endArrow=none;html=1;entryX=0;entryY=0.5;entryDx=0;entryDy=0;exitX=1.008;exitY=0.499;exitDx=0;exitDy=0;exitPerimeter=0;" parent="71lCy1hKlNE4NQ7uuJaK-1" source="K-oBcJzlDwcCKNYCo3xG-38" target="K-oBcJzlDwcCKNYCo3xG-41" edge="1">
          <mxGeometry width="50" height="50" relative="1" as="geometry">
            <mxPoint x="288" y="400" as="sourcePoint" />
            <mxPoint x="288" y="400" as="targetPoint" />
          </mxGeometry>
        </mxCell>
        <mxCell id="K-oBcJzlDwcCKNYCo3xG-48" value="HBA Controller" style="rounded=1;whiteSpace=wrap;html=1;strokeColor=#006EAF;fillColor=#CCFFE6;" parent="71lCy1hKlNE4NQ7uuJaK-1" vertex="1">
          <mxGeometry x="70" y="490" width="90" height="20" as="geometry" />
        </mxCell>
        <mxCell id="K-oBcJzlDwcCKNYCo3xG-60" value="" style="endArrow=none;html=1;exitX=0.5;exitY=0;exitDx=0;exitDy=0;entryX=0.5;entryY=1;entryDx=0;entryDy=0;" parent="71lCy1hKlNE4NQ7uuJaK-1" target="K-oBcJzlDwcCKNYCo3xG-48" edge="1">
          <mxGeometry width="50" height="50" relative="1" as="geometry">
            <mxPoint x="115" y="530" as="sourcePoint" />
            <mxPoint x="65" y="490" as="targetPoint" />
          </mxGeometry>
        </mxCell>
        <mxCell id="K-oBcJzlDwcCKNYCo3xG-63" value="DUT" style="rounded=1;whiteSpace=wrap;html=1;fontColor=#000000;fillColor=#FFB570;" parent="71lCy1hKlNE4NQ7uuJaK-1" vertex="1">
          <mxGeometry x="228.5" y="530" width="90" height="20" as="geometry" />
        </mxCell>
        <mxCell id="K-oBcJzlDwcCKNYCo3xG-64" value="DUT" style="rounded=1;whiteSpace=wrap;html=1;fontColor=#000000;fillColor=#FFB570;" parent="71lCy1hKlNE4NQ7uuJaK-1" vertex="1">
          <mxGeometry x="70" y="530" width="90" height="20" as="geometry" />
        </mxCell>
        <mxCell id="K-oBcJzlDwcCKNYCo3xG-70" style="edgeStyle=none;shape=link;rounded=0;orthogonalLoop=1;jettySize=auto;html=1;exitX=1;exitY=0.5;exitDx=0;exitDy=0;" parent="71lCy1hKlNE4NQ7uuJaK-1" edge="1">
          <mxGeometry relative="1" as="geometry">
            <mxPoint x="367" y="581.5" as="sourcePoint" />
            <mxPoint x="367" y="581.5" as="targetPoint" />
          </mxGeometry>
        </mxCell>
        <mxCell id="K-oBcJzlDwcCKNYCo3xG-71" value="HBA Controller" style="rounded=1;whiteSpace=wrap;html=1;strokeColor=#006EAF;fillColor=#CCFFE6;" parent="71lCy1hKlNE4NQ7uuJaK-1" vertex="1">
          <mxGeometry x="391.5" y="190" width="90" height="20" as="geometry" />
        </mxCell>
        <mxCell id="K-oBcJzlDwcCKNYCo3xG-72" style="edgeStyle=none;rounded=0;orthogonalLoop=1;jettySize=auto;html=1;exitX=0.25;exitY=1;exitDx=0;exitDy=0;entryX=0.5;entryY=0;entryDx=0;entryDy=0;endArrow=none;endFill=0;fontColor=#000000;" parent="71lCy1hKlNE4NQ7uuJaK-1" target="K-oBcJzlDwcCKNYCo3xG-75" edge="1">
          <mxGeometry relative="1" as="geometry">
            <mxPoint x="414" y="250" as="sourcePoint" />
          </mxGeometry>
        </mxCell>
        <mxCell id="K-oBcJzlDwcCKNYCo3xG-73" style="edgeStyle=none;rounded=0;orthogonalLoop=1;jettySize=auto;html=1;exitX=0.75;exitY=1;exitDx=0;exitDy=0;entryX=0.5;entryY=0;entryDx=0;entryDy=0;endArrow=none;endFill=0;fontColor=#000000;" parent="71lCy1hKlNE4NQ7uuJaK-1" target="K-oBcJzlDwcCKNYCo3xG-76" edge="1">
          <mxGeometry relative="1" as="geometry">
            <mxPoint x="459" y="250" as="sourcePoint" />
          </mxGeometry>
        </mxCell>
        <mxCell id="K-oBcJzlDwcCKNYCo3xG-75" value="SAS SSD/HDD" style="rounded=1;whiteSpace=wrap;html=1;fillColor=#dae8fc;strokeColor=#6c8ebf;" parent="71lCy1hKlNE4NQ7uuJaK-1" vertex="1">
          <mxGeometry x="341.5" y="270" width="90" height="20" as="geometry" />
        </mxCell>
        <mxCell id="K-oBcJzlDwcCKNYCo3xG-76" value="SATA SSD/HDD" style="rounded=1;whiteSpace=wrap;html=1;strokeColor=#82b366;fillColor=#d5e8d4;" parent="71lCy1hKlNE4NQ7uuJaK-1" vertex="1">
          <mxGeometry x="438.5" y="270" width="90" height="20" as="geometry" />
        </mxCell>
        <mxCell id="K-oBcJzlDwcCKNYCo3xG-77" value="DUT" style="rounded=1;whiteSpace=wrap;html=1;fontColor=#000000;fillColor=#FFB570;" parent="71lCy1hKlNE4NQ7uuJaK-1" vertex="1">
          <mxGeometry x="630" y="230" width="90" height="20" as="geometry" />
        </mxCell>
        <mxCell id="K-oBcJzlDwcCKNYCo3xG-78" style="edgeStyle=none;rounded=0;orthogonalLoop=1;jettySize=auto;html=1;exitX=0.25;exitY=1;exitDx=0;exitDy=0;entryX=0.5;entryY=0;entryDx=0;entryDy=0;endArrow=none;endFill=0;fontColor=#000000;" parent="71lCy1hKlNE4NQ7uuJaK-1" target="K-oBcJzlDwcCKNYCo3xG-81" edge="1">
          <mxGeometry relative="1" as="geometry">
            <mxPoint x="651" y="250" as="sourcePoint" />
          </mxGeometry>
        </mxCell>
        <mxCell id="K-oBcJzlDwcCKNYCo3xG-79" style="edgeStyle=none;rounded=0;orthogonalLoop=1;jettySize=auto;html=1;exitX=0.75;exitY=1;exitDx=0;exitDy=0;entryX=0.5;entryY=0;entryDx=0;entryDy=0;endArrow=none;endFill=0;fontColor=#000000;" parent="71lCy1hKlNE4NQ7uuJaK-1" target="K-oBcJzlDwcCKNYCo3xG-82" edge="1">
          <mxGeometry relative="1" as="geometry">
            <mxPoint x="696" y="250" as="sourcePoint" />
          </mxGeometry>
        </mxCell>
        <mxCell id="K-oBcJzlDwcCKNYCo3xG-81" value="SAS SSD/HDD" style="rounded=1;whiteSpace=wrap;html=1;fillColor=#dae8fc;strokeColor=#6c8ebf;" parent="71lCy1hKlNE4NQ7uuJaK-1" vertex="1">
          <mxGeometry x="578.5" y="270" width="90" height="20" as="geometry" />
        </mxCell>
        <mxCell id="K-oBcJzlDwcCKNYCo3xG-82" value="SATA SSD/HDD" style="rounded=1;whiteSpace=wrap;html=1;strokeColor=#82b366;fillColor=#d5e8d4;" parent="71lCy1hKlNE4NQ7uuJaK-1" vertex="1">
          <mxGeometry x="678.5" y="270" width="90" height="20" as="geometry" />
        </mxCell>
        <mxCell id="K-oBcJzlDwcCKNYCo3xG-83" value="" style="endArrow=none;html=1;exitX=0.5;exitY=0;exitDx=0;exitDy=0;entryX=0.5;entryY=1;entryDx=0;entryDy=0;" parent="71lCy1hKlNE4NQ7uuJaK-1" target="K-oBcJzlDwcCKNYCo3xG-71" edge="1">
          <mxGeometry width="50" height="50" relative="1" as="geometry">
            <mxPoint x="436.5" y="230" as="sourcePoint" />
            <mxPoint x="386.5" y="190" as="targetPoint" />
          </mxGeometry>
        </mxCell>
        <mxCell id="K-oBcJzlDwcCKNYCo3xG-86" value="DUT" style="rounded=1;whiteSpace=wrap;html=1;fontColor=#000000;fillColor=#FFB570;" parent="71lCy1hKlNE4NQ7uuJaK-1" vertex="1">
          <mxGeometry x="392" y="230" width="90" height="20" as="geometry" />
        </mxCell>
        <mxCell id="K-oBcJzlDwcCKNYCo3xG-87" value="LSI Expander" style="rounded=1;whiteSpace=wrap;html=1;fillColor=#f8cecc;strokeColor=#b85450;" parent="71lCy1hKlNE4NQ7uuJaK-1" vertex="1">
          <mxGeometry x="509" y="230" width="90" height="20" as="geometry" />
        </mxCell>
        <mxCell id="K-oBcJzlDwcCKNYCo3xG-88" value="" style="endArrow=none;html=1;exitX=1;exitY=0.5;exitDx=0;exitDy=0;" parent="71lCy1hKlNE4NQ7uuJaK-1" source="K-oBcJzlDwcCKNYCo3xG-86" target="K-oBcJzlDwcCKNYCo3xG-87" edge="1">
          <mxGeometry width="50" height="50" relative="1" as="geometry">
            <mxPoint x="510" y="260" as="sourcePoint" />
            <mxPoint x="560" y="210" as="targetPoint" />
          </mxGeometry>
        </mxCell>
        <mxCell id="K-oBcJzlDwcCKNYCo3xG-89" value="" style="endArrow=none;html=1;entryX=0;entryY=0.5;entryDx=0;entryDy=0;exitX=1;exitY=0.5;exitDx=0;exitDy=0;" parent="71lCy1hKlNE4NQ7uuJaK-1" source="K-oBcJzlDwcCKNYCo3xG-87" target="K-oBcJzlDwcCKNYCo3xG-77" edge="1">
          <mxGeometry width="50" height="50" relative="1" as="geometry">
            <mxPoint x="600" y="240" as="sourcePoint" />
            <mxPoint x="560" y="210" as="targetPoint" />
          </mxGeometry>
        </mxCell>
        <mxCell id="K-oBcJzlDwcCKNYCo3xG-90" value="HBA Controller" style="rounded=1;whiteSpace=wrap;html=1;strokeColor=#006EAF;fillColor=#CCFFE6;" parent="71lCy1hKlNE4NQ7uuJaK-1" vertex="1">
          <mxGeometry x="630" y="190" width="90" height="20" as="geometry" />
        </mxCell>
        <mxCell id="K-oBcJzlDwcCKNYCo3xG-92" value="" style="endArrow=none;html=1;entryX=0.5;entryY=1;entryDx=0;entryDy=0;" parent="71lCy1hKlNE4NQ7uuJaK-1" source="K-oBcJzlDwcCKNYCo3xG-77" target="K-oBcJzlDwcCKNYCo3xG-90" edge="1">
          <mxGeometry width="50" height="50" relative="1" as="geometry">
            <mxPoint x="620" y="270" as="sourcePoint" />
            <mxPoint x="670" y="220" as="targetPoint" />
          </mxGeometry>
        </mxCell>
        <mxCell id="K-oBcJzlDwcCKNYCo3xG-94" value="SAS/SATA SSD/HDD" style="rounded=1;whiteSpace=wrap;html=1;fillColor=#dae8fc;strokeColor=#6c8ebf;" parent="71lCy1hKlNE4NQ7uuJaK-1" vertex="1">
          <mxGeometry x="490" y="190" width="130" height="20" as="geometry" />
        </mxCell>
        <mxCell id="K-oBcJzlDwcCKNYCo3xG-95" value="" style="endArrow=none;html=1;exitX=0.5;exitY=0;exitDx=0;exitDy=0;entryX=0.5;entryY=1;entryDx=0;entryDy=0;" parent="71lCy1hKlNE4NQ7uuJaK-1" edge="1">
          <mxGeometry width="50" height="50" relative="1" as="geometry">
            <mxPoint x="554.8299999999999" y="230" as="sourcePoint" />
            <mxPoint x="554.8299999999999" y="210" as="targetPoint" />
          </mxGeometry>
        </mxCell>
        <mxCell id="Fp7CoRYXZLwL9HnoOPHS-0" value="HBA Controller" style="rounded=1;whiteSpace=wrap;html=1;strokeColor=#006EAF;fillColor=#CCFFE6;" parent="71lCy1hKlNE4NQ7uuJaK-1" vertex="1">
          <mxGeometry x="76" y="670" width="90" height="20" as="geometry" />
        </mxCell>
        <mxCell id="Fp7CoRYXZLwL9HnoOPHS-1" style="edgeStyle=none;rounded=0;orthogonalLoop=1;jettySize=auto;html=1;exitX=0.25;exitY=1;exitDx=0;exitDy=0;entryX=0.5;entryY=0;entryDx=0;entryDy=0;endArrow=none;endFill=0;fontColor=#000000;" parent="71lCy1hKlNE4NQ7uuJaK-1" source="Fp7CoRYXZLwL9HnoOPHS-3" target="Fp7CoRYXZLwL9HnoOPHS-4" edge="1">
          <mxGeometry relative="1" as="geometry" />
        </mxCell>
        <mxCell id="Fp7CoRYXZLwL9HnoOPHS-2" style="edgeStyle=none;rounded=0;orthogonalLoop=1;jettySize=auto;html=1;exitX=0.75;exitY=1;exitDx=0;exitDy=0;entryX=0.5;entryY=0;entryDx=0;entryDy=0;endArrow=none;endFill=0;fontColor=#000000;" parent="71lCy1hKlNE4NQ7uuJaK-1" source="Fp7CoRYXZLwL9HnoOPHS-3" target="Fp7CoRYXZLwL9HnoOPHS-5" edge="1">
          <mxGeometry relative="1" as="geometry" />
        </mxCell>
        <mxCell id="Fp7CoRYXZLwL9HnoOPHS-3" value="LSI Expander" style="rounded=1;whiteSpace=wrap;html=1;fillColor=#f8cecc;strokeColor=#b85450;" parent="71lCy1hKlNE4NQ7uuJaK-1" vertex="1">
          <mxGeometry x="76" y="710" width="90" height="20" as="geometry" />
        </mxCell>
        <mxCell id="Fp7CoRYXZLwL9HnoOPHS-4" value="SAS SSD/HDD" style="rounded=1;whiteSpace=wrap;html=1;fillColor=#dae8fc;strokeColor=#6c8ebf;" parent="71lCy1hKlNE4NQ7uuJaK-1" vertex="1">
          <mxGeometry x="26" y="750" width="90" height="20" as="geometry" />
        </mxCell>
        <mxCell id="Fp7CoRYXZLwL9HnoOPHS-5" value="SATA SSD/HDD" style="rounded=1;whiteSpace=wrap;html=1;strokeColor=#82b366;fillColor=#d5e8d4;" parent="71lCy1hKlNE4NQ7uuJaK-1" vertex="1">
          <mxGeometry x="123" y="750" width="90" height="20" as="geometry" />
        </mxCell>
        <mxCell id="Fp7CoRYXZLwL9HnoOPHS-6" value="DUT" style="rounded=1;whiteSpace=wrap;html=1;fontColor=#000000;fillColor=#FFB570;" parent="71lCy1hKlNE4NQ7uuJaK-1" vertex="1">
          <mxGeometry x="193" y="710" width="90" height="20" as="geometry" />
        </mxCell>
        <mxCell id="Fp7CoRYXZLwL9HnoOPHS-7" style="edgeStyle=none;rounded=0;orthogonalLoop=1;jettySize=auto;html=1;exitX=0.25;exitY=1;exitDx=0;exitDy=0;entryX=0.5;entryY=0;entryDx=0;entryDy=0;endArrow=none;endFill=0;fontColor=#000000;" parent="71lCy1hKlNE4NQ7uuJaK-1" target="Fp7CoRYXZLwL9HnoOPHS-10" edge="1">
          <mxGeometry relative="1" as="geometry">
            <mxPoint x="335.5" y="730" as="sourcePoint" />
          </mxGeometry>
        </mxCell>
        <mxCell id="Fp7CoRYXZLwL9HnoOPHS-8" style="edgeStyle=none;rounded=0;orthogonalLoop=1;jettySize=auto;html=1;exitX=0.75;exitY=1;exitDx=0;exitDy=0;entryX=0.5;entryY=0;entryDx=0;entryDy=0;endArrow=none;endFill=0;fontColor=#000000;" parent="71lCy1hKlNE4NQ7uuJaK-1" target="Fp7CoRYXZLwL9HnoOPHS-11" edge="1">
          <mxGeometry relative="1" as="geometry">
            <mxPoint x="380.5" y="730" as="sourcePoint" />
          </mxGeometry>
        </mxCell>
        <mxCell id="Fp7CoRYXZLwL9HnoOPHS-10" value="SAS SSD/HDD" style="rounded=1;whiteSpace=wrap;html=1;fillColor=#dae8fc;strokeColor=#6c8ebf;" parent="71lCy1hKlNE4NQ7uuJaK-1" vertex="1">
          <mxGeometry x="263" y="750" width="90" height="20" as="geometry" />
        </mxCell>
        <mxCell id="Fp7CoRYXZLwL9HnoOPHS-11" value="SATA SSD/HDD" style="rounded=1;whiteSpace=wrap;html=1;strokeColor=#82b366;fillColor=#d5e8d4;" parent="71lCy1hKlNE4NQ7uuJaK-1" vertex="1">
          <mxGeometry x="363" y="750" width="90" height="20" as="geometry" />
        </mxCell>
        <mxCell id="Fp7CoRYXZLwL9HnoOPHS-12" value="" style="endArrow=none;html=1;exitX=0.5;exitY=0;exitDx=0;exitDy=0;entryX=0.5;entryY=1;entryDx=0;entryDy=0;" parent="71lCy1hKlNE4NQ7uuJaK-1" source="Fp7CoRYXZLwL9HnoOPHS-3" target="Fp7CoRYXZLwL9HnoOPHS-0" edge="1">
          <mxGeometry width="50" height="50" relative="1" as="geometry">
            <mxPoint x="21" y="720" as="sourcePoint" />
            <mxPoint x="71" y="670" as="targetPoint" />
          </mxGeometry>
        </mxCell>
        <mxCell id="Fp7CoRYXZLwL9HnoOPHS-13" value="" style="endArrow=none;html=1;exitX=1;exitY=0.5;exitDx=0;exitDy=0;" parent="71lCy1hKlNE4NQ7uuJaK-1" source="Fp7CoRYXZLwL9HnoOPHS-3" target="Fp7CoRYXZLwL9HnoOPHS-6" edge="1">
          <mxGeometry width="50" height="50" relative="1" as="geometry">
            <mxPoint x="241" y="790" as="sourcePoint" />
            <mxPoint x="291" y="740" as="targetPoint" />
          </mxGeometry>
        </mxCell>
        <mxCell id="Fp7CoRYXZLwL9HnoOPHS-14" value="" style="endArrow=none;html=1;entryX=0;entryY=0.5;entryDx=0;entryDy=0;exitX=1.008;exitY=0.499;exitDx=0;exitDy=0;exitPerimeter=0;" parent="71lCy1hKlNE4NQ7uuJaK-1" source="Fp7CoRYXZLwL9HnoOPHS-6" edge="1">
          <mxGeometry width="50" height="50" relative="1" as="geometry">
            <mxPoint x="291" y="720" as="sourcePoint" />
            <mxPoint x="313" y="720" as="targetPoint" />
          </mxGeometry>
        </mxCell>
        <mxCell id="Fp7CoRYXZLwL9HnoOPHS-15" value="DUT" style="rounded=1;whiteSpace=wrap;html=1;fontColor=#000000;fillColor=#FFB570;" parent="71lCy1hKlNE4NQ7uuJaK-1" vertex="1">
          <mxGeometry x="310" y="710" width="90" height="20" as="geometry" />
        </mxCell>
        <mxCell id="Fp7CoRYXZLwL9HnoOPHS-16" value="SAS/SATA SSD/HDD" style="rounded=1;whiteSpace=wrap;html=1;fillColor=#dae8fc;strokeColor=#6c8ebf;" parent="71lCy1hKlNE4NQ7uuJaK-1" vertex="1">
          <mxGeometry x="170" y="350" width="130" height="20" as="geometry" />
        </mxCell>
        <mxCell id="Fp7CoRYXZLwL9HnoOPHS-17" value="" style="endArrow=none;html=1;exitX=0.5;exitY=0;exitDx=0;exitDy=0;entryX=0.5;entryY=1;entryDx=0;entryDy=0;" parent="71lCy1hKlNE4NQ7uuJaK-1" edge="1">
          <mxGeometry width="50" height="50" relative="1" as="geometry">
            <mxPoint x="234.8" y="390" as="sourcePoint" />
            <mxPoint x="234.8" y="370" as="targetPoint" />
          </mxGeometry>
        </mxCell>
        <mxCell id="Fp7CoRYXZLwL9HnoOPHS-20" value="SAS/SATA SSD/HDD" style="rounded=1;whiteSpace=wrap;html=1;fillColor=#dae8fc;strokeColor=#6c8ebf;" parent="71lCy1hKlNE4NQ7uuJaK-1" vertex="1">
          <mxGeometry x="173" y="670" width="130" height="20" as="geometry" />
        </mxCell>
        <mxCell id="Fp7CoRYXZLwL9HnoOPHS-21" value="" style="endArrow=none;html=1;exitX=0.5;exitY=0;exitDx=0;exitDy=0;entryX=0.5;entryY=1;entryDx=0;entryDy=0;" parent="71lCy1hKlNE4NQ7uuJaK-1" edge="1">
          <mxGeometry width="50" height="50" relative="1" as="geometry">
            <mxPoint x="239.29999999999995" y="710" as="sourcePoint" />
            <mxPoint x="239.29999999999995" y="690" as="targetPoint" />
          </mxGeometry>
        </mxCell>
        <mxCell id="Fp7CoRYXZLwL9HnoOPHS-22" style="edgeStyle=none;rounded=0;orthogonalLoop=1;jettySize=auto;html=1;exitX=0.5;exitY=1;exitDx=0;exitDy=0;entryX=0.5;entryY=0;entryDx=0;entryDy=0;endArrow=none;endFill=0;fontColor=#000000;" parent="71lCy1hKlNE4NQ7uuJaK-1" source="Fp7CoRYXZLwL9HnoOPHS-23" target="Fp7CoRYXZLwL9HnoOPHS-26" edge="1">
          <mxGeometry relative="1" as="geometry" />
        </mxCell>
        <mxCell id="Fp7CoRYXZLwL9HnoOPHS-23" value="HBA Controller" style="rounded=1;whiteSpace=wrap;html=1;strokeColor=#006EAF;fillColor=#CCFFE6;" parent="71lCy1hKlNE4NQ7uuJaK-1" vertex="1">
          <mxGeometry x="550" y="550" width="90" height="20" as="geometry" />
        </mxCell>
        <mxCell id="Fp7CoRYXZLwL9HnoOPHS-24" style="edgeStyle=none;rounded=0;orthogonalLoop=1;jettySize=auto;html=1;exitX=0.25;exitY=1;exitDx=0;exitDy=0;entryX=0.5;entryY=0;entryDx=0;entryDy=0;endArrow=none;endFill=0;fontColor=#000000;" parent="71lCy1hKlNE4NQ7uuJaK-1" source="Fp7CoRYXZLwL9HnoOPHS-26" target="Fp7CoRYXZLwL9HnoOPHS-27" edge="1">
          <mxGeometry relative="1" as="geometry" />
        </mxCell>
        <mxCell id="Fp7CoRYXZLwL9HnoOPHS-25" style="edgeStyle=none;rounded=0;orthogonalLoop=1;jettySize=auto;html=1;exitX=0.75;exitY=1;exitDx=0;exitDy=0;entryX=0.5;entryY=0;entryDx=0;entryDy=0;endArrow=none;endFill=0;fontColor=#000000;" parent="71lCy1hKlNE4NQ7uuJaK-1" source="Fp7CoRYXZLwL9HnoOPHS-26" target="Fp7CoRYXZLwL9HnoOPHS-28" edge="1">
          <mxGeometry relative="1" as="geometry" />
        </mxCell>
        <mxCell id="Fp7CoRYXZLwL9HnoOPHS-26" value="DUT0" style="rounded=1;whiteSpace=wrap;html=1;fontColor=#000000;fillColor=#FFB570;" parent="71lCy1hKlNE4NQ7uuJaK-1" vertex="1">
          <mxGeometry x="550" y="590" width="90" height="20" as="geometry" />
        </mxCell>
        <mxCell id="Fp7CoRYXZLwL9HnoOPHS-27" value="SAS" style="rounded=1;whiteSpace=wrap;html=1;fillColor=#dae8fc;strokeColor=#6c8ebf;" parent="71lCy1hKlNE4NQ7uuJaK-1" vertex="1">
          <mxGeometry x="500" y="630" width="90" height="20" as="geometry" />
        </mxCell>
        <mxCell id="Fp7CoRYXZLwL9HnoOPHS-28" value="SATA" style="rounded=1;whiteSpace=wrap;html=1;strokeColor=#82b366;fillColor=#d5e8d4;" parent="71lCy1hKlNE4NQ7uuJaK-1" vertex="1">
          <mxGeometry x="600" y="630" width="90" height="20" as="geometry" />
        </mxCell>
        <mxCell id="jm2o8SZ_SpFbutI9Carv-45" value="SAS/SATA SSD/HDD" style="rounded=1;whiteSpace=wrap;html=1;fillColor=#dae8fc;strokeColor=#6c8ebf;" vertex="1" parent="71lCy1hKlNE4NQ7uuJaK-1">
          <mxGeometry x="51.5" y="570" width="130" height="20" as="geometry" />
        </mxCell>
        <mxCell id="jm2o8SZ_SpFbutI9Carv-46" value="SAS/SATA SSD/HDD" style="rounded=1;whiteSpace=wrap;html=1;fillColor=#dae8fc;strokeColor=#6c8ebf;" vertex="1" parent="71lCy1hKlNE4NQ7uuJaK-1">
          <mxGeometry x="208.5" y="570" width="130" height="20" as="geometry" />
        </mxCell>
        <mxCell id="jm2o8SZ_SpFbutI9Carv-47" value="" style="endArrow=none;html=1;exitX=0.5;exitY=0;exitDx=0;exitDy=0;entryX=0.5;entryY=1;entryDx=0;entryDy=0;" edge="1" parent="71lCy1hKlNE4NQ7uuJaK-1">
          <mxGeometry width="50" height="50" relative="1" as="geometry">
            <mxPoint x="114.76" y="570" as="sourcePoint" />
            <mxPoint x="114.76" y="550" as="targetPoint" />
          </mxGeometry>
        </mxCell>
        <mxCell id="jm2o8SZ_SpFbutI9Carv-48" value="" style="endArrow=none;html=1;entryX=0.5;entryY=1;entryDx=0;entryDy=0;exitX=0.5;exitY=0;exitDx=0;exitDy=0;" edge="1" parent="71lCy1hKlNE4NQ7uuJaK-1" source="jm2o8SZ_SpFbutI9Carv-46">
          <mxGeometry width="50" height="50" relative="1" as="geometry">
            <mxPoint x="273.5" y="565" as="sourcePoint" />
            <mxPoint x="273.26" y="550" as="targetPoint" />
          </mxGeometry>
        </mxCell>
        <mxCell id="jm2o8SZ_SpFbutI9Carv-49" value="" style="endArrow=none;html=1;exitX=1;exitY=0.5;exitDx=0;exitDy=0;entryX=0;entryY=0.5;entryDx=0;entryDy=0;" edge="1" parent="71lCy1hKlNE4NQ7uuJaK-1" source="K-oBcJzlDwcCKNYCo3xG-64" target="K-oBcJzlDwcCKNYCo3xG-63">
          <mxGeometry width="50" height="50" relative="1" as="geometry">
            <mxPoint x="186" y="583" as="sourcePoint" />
            <mxPoint x="236" y="533" as="targetPoint" />
          </mxGeometry>
        </mxCell>
      </root>
    </mxGraphModel>
  </diagram>
  <diagram id="OuXfIp2K7AtEDpo-7A0O" name="三级">
    <mxGraphModel dx="638" dy="353" grid="0" gridSize="10" guides="1" tooltips="1" connect="1" arrows="1" fold="1" page="1" pageScale="1" pageWidth="827" pageHeight="1169" math="0" shadow="0">
      <root>
        <mxCell id="2WEzYPmRJhzXDSVYC9c6-0" />
        <mxCell id="2WEzYPmRJhzXDSVYC9c6-1" parent="2WEzYPmRJhzXDSVYC9c6-0" />
        <mxCell id="-c4P-sNR4xDieSdSL6eb-0" value="HBA Controller" style="rounded=1;whiteSpace=wrap;html=1;fillColor=#CCFFE6;" vertex="1" parent="2WEzYPmRJhzXDSVYC9c6-1">
          <mxGeometry x="70" y="596" width="90" height="20" as="geometry" />
        </mxCell>
        <mxCell id="-c4P-sNR4xDieSdSL6eb-1" value="" style="endArrow=none;html=1;exitX=0.5;exitY=0;exitDx=0;exitDy=0;entryX=0.5;entryY=1;entryDx=0;entryDy=0;" edge="1" parent="2WEzYPmRJhzXDSVYC9c6-1" target="-c4P-sNR4xDieSdSL6eb-0">
          <mxGeometry width="50" height="50" relative="1" as="geometry">
            <mxPoint x="115" y="636" as="sourcePoint" />
            <mxPoint x="65" y="596" as="targetPoint" />
          </mxGeometry>
        </mxCell>
        <mxCell id="-c4P-sNR4xDieSdSL6eb-2" value="" style="endArrow=none;html=1;exitX=0.993;exitY=0.508;exitDx=0;exitDy=0;exitPerimeter=0;" edge="1" parent="2WEzYPmRJhzXDSVYC9c6-1">
          <mxGeometry width="50" height="50" relative="1" as="geometry">
            <mxPoint x="156.37" y="646.1600000000001" as="sourcePoint" />
            <mxPoint x="187.0000000000001" y="646" as="targetPoint" />
          </mxGeometry>
        </mxCell>
        <mxCell id="-c4P-sNR4xDieSdSL6eb-3" value="" style="endArrow=none;html=1;entryX=0;entryY=0.5;entryDx=0;entryDy=0;exitX=1.008;exitY=0.499;exitDx=0;exitDy=0;exitPerimeter=0;" edge="1" parent="2WEzYPmRJhzXDSVYC9c6-1">
          <mxGeometry width="50" height="50" relative="1" as="geometry">
            <mxPoint x="277.72" y="645.98" as="sourcePoint" />
            <mxPoint x="307" y="646" as="targetPoint" />
          </mxGeometry>
        </mxCell>
        <mxCell id="-c4P-sNR4xDieSdSL6eb-4" value="LSI Expander" style="rounded=1;whiteSpace=wrap;html=1;fillColor=#f8cecc;" vertex="1" parent="2WEzYPmRJhzXDSVYC9c6-1">
          <mxGeometry x="187" y="636" width="90" height="20" as="geometry" />
        </mxCell>
        <mxCell id="-c4P-sNR4xDieSdSL6eb-5" value="DUT" style="rounded=1;whiteSpace=wrap;html=1;fillColor=#FFB570;" vertex="1" parent="2WEzYPmRJhzXDSVYC9c6-1">
          <mxGeometry x="307" y="636" width="90" height="20" as="geometry" />
        </mxCell>
        <mxCell id="-c4P-sNR4xDieSdSL6eb-6" value="LSI Expander" style="rounded=1;whiteSpace=wrap;html=1;fillColor=#f8cecc;" vertex="1" parent="2WEzYPmRJhzXDSVYC9c6-1">
          <mxGeometry x="67" y="636" width="90" height="20" as="geometry" />
        </mxCell>
        <mxCell id="-c4P-sNR4xDieSdSL6eb-7" value="SAS/SATA SSD/HDD" style="rounded=1;whiteSpace=wrap;html=1;fillColor=#dae8fc;" vertex="1" parent="2WEzYPmRJhzXDSVYC9c6-1">
          <mxGeometry x="172.5" y="676" width="119" height="20" as="geometry" />
        </mxCell>
        <mxCell id="-c4P-sNR4xDieSdSL6eb-8" value="" style="endArrow=none;html=1;entryX=0.5;entryY=1;entryDx=0;entryDy=0;" edge="1" parent="2WEzYPmRJhzXDSVYC9c6-1">
          <mxGeometry width="50" height="50" relative="1" as="geometry">
            <mxPoint x="232.0000000000001" y="676" as="sourcePoint" />
            <mxPoint x="231.79999999999984" y="656" as="targetPoint" />
          </mxGeometry>
        </mxCell>
        <mxCell id="-c4P-sNR4xDieSdSL6eb-9" value="SAS/SATA SSD/HDD" style="rounded=1;whiteSpace=wrap;html=1;fillColor=#dae8fc;" vertex="1" parent="2WEzYPmRJhzXDSVYC9c6-1">
          <mxGeometry x="300" y="676" width="119" height="20" as="geometry" />
        </mxCell>
        <mxCell id="-c4P-sNR4xDieSdSL6eb-10" value="SAS/SATA SSD/HDD" style="rounded=1;whiteSpace=wrap;html=1;fillColor=#dae8fc;" vertex="1" parent="2WEzYPmRJhzXDSVYC9c6-1">
          <mxGeometry x="48" y="676" width="119" height="20" as="geometry" />
        </mxCell>
        <mxCell id="-c4P-sNR4xDieSdSL6eb-11" value="" style="endArrow=none;html=1;exitX=0.5;exitY=0;exitDx=0;exitDy=0;entryX=0.5;entryY=1;entryDx=0;entryDy=0;" edge="1" parent="2WEzYPmRJhzXDSVYC9c6-1">
          <mxGeometry width="50" height="50" relative="1" as="geometry">
            <mxPoint x="108.5" y="676" as="sourcePoint" />
            <mxPoint x="108.5" y="656" as="targetPoint" />
          </mxGeometry>
        </mxCell>
        <mxCell id="-c4P-sNR4xDieSdSL6eb-12" value="" style="endArrow=none;html=1;exitX=0.5;exitY=0;exitDx=0;exitDy=0;entryX=0.5;entryY=1;entryDx=0;entryDy=0;" edge="1" parent="2WEzYPmRJhzXDSVYC9c6-1">
          <mxGeometry width="50" height="50" relative="1" as="geometry">
            <mxPoint x="351.79999999999995" y="676" as="sourcePoint" />
            <mxPoint x="351.79999999999995" y="656" as="targetPoint" />
          </mxGeometry>
        </mxCell>
        <mxCell id="-c4P-sNR4xDieSdSL6eb-13" value="HBA Controller" style="rounded=1;whiteSpace=wrap;html=1;fillColor=#CCFFE6;" vertex="1" parent="2WEzYPmRJhzXDSVYC9c6-1">
          <mxGeometry x="70" y="723" width="90" height="20" as="geometry" />
        </mxCell>
        <mxCell id="-c4P-sNR4xDieSdSL6eb-14" value="" style="endArrow=none;html=1;exitX=0.5;exitY=0;exitDx=0;exitDy=0;entryX=0.5;entryY=1;entryDx=0;entryDy=0;" edge="1" parent="2WEzYPmRJhzXDSVYC9c6-1" target="-c4P-sNR4xDieSdSL6eb-13">
          <mxGeometry width="50" height="50" relative="1" as="geometry">
            <mxPoint x="115" y="763" as="sourcePoint" />
            <mxPoint x="65" y="723" as="targetPoint" />
          </mxGeometry>
        </mxCell>
        <mxCell id="-c4P-sNR4xDieSdSL6eb-15" value="" style="endArrow=none;html=1;exitX=0.993;exitY=0.508;exitDx=0;exitDy=0;exitPerimeter=0;" edge="1" parent="2WEzYPmRJhzXDSVYC9c6-1">
          <mxGeometry width="50" height="50" relative="1" as="geometry">
            <mxPoint x="156.37" y="773.1600000000001" as="sourcePoint" />
            <mxPoint x="187.0000000000001" y="773" as="targetPoint" />
          </mxGeometry>
        </mxCell>
        <mxCell id="-c4P-sNR4xDieSdSL6eb-16" value="" style="endArrow=none;html=1;entryX=0;entryY=0.5;entryDx=0;entryDy=0;exitX=1;exitY=0.5;exitDx=0;exitDy=0;" edge="1" parent="2WEzYPmRJhzXDSVYC9c6-1" source="-c4P-sNR4xDieSdSL6eb-19">
          <mxGeometry width="50" height="50" relative="1" as="geometry">
            <mxPoint x="277.72" y="772.98" as="sourcePoint" />
            <mxPoint x="306.9999999999998" y="773" as="targetPoint" />
          </mxGeometry>
        </mxCell>
        <mxCell id="-c4P-sNR4xDieSdSL6eb-17" value="LSI Expander" style="rounded=1;whiteSpace=wrap;html=1;fillColor=#f8cecc;" vertex="1" parent="2WEzYPmRJhzXDSVYC9c6-1">
          <mxGeometry x="307" y="761" width="90" height="20" as="geometry" />
        </mxCell>
        <mxCell id="-c4P-sNR4xDieSdSL6eb-18" value="DUT" style="rounded=1;whiteSpace=wrap;html=1;fillColor=#FFB570;" vertex="1" parent="2WEzYPmRJhzXDSVYC9c6-1">
          <mxGeometry x="67" y="763" width="90" height="20" as="geometry" />
        </mxCell>
        <mxCell id="-c4P-sNR4xDieSdSL6eb-19" value="LSI Expander" style="rounded=1;whiteSpace=wrap;html=1;fillColor=#f8cecc;" vertex="1" parent="2WEzYPmRJhzXDSVYC9c6-1">
          <mxGeometry x="186" y="763" width="90" height="20" as="geometry" />
        </mxCell>
        <mxCell id="-c4P-sNR4xDieSdSL6eb-20" value="SAS/SATA SSD/HDD" style="rounded=1;whiteSpace=wrap;html=1;fillColor=#dae8fc;" vertex="1" parent="2WEzYPmRJhzXDSVYC9c6-1">
          <mxGeometry x="172.5" y="803" width="119" height="20" as="geometry" />
        </mxCell>
        <mxCell id="-c4P-sNR4xDieSdSL6eb-21" value="" style="endArrow=none;html=1;entryX=0.5;entryY=1;entryDx=0;entryDy=0;" edge="1" parent="2WEzYPmRJhzXDSVYC9c6-1">
          <mxGeometry width="50" height="50" relative="1" as="geometry">
            <mxPoint x="232.0000000000001" y="803" as="sourcePoint" />
            <mxPoint x="231.79999999999984" y="783" as="targetPoint" />
          </mxGeometry>
        </mxCell>
        <mxCell id="-c4P-sNR4xDieSdSL6eb-22" value="SAS/SATA SSD/HDD" style="rounded=1;whiteSpace=wrap;html=1;fillColor=#dae8fc;" vertex="1" parent="2WEzYPmRJhzXDSVYC9c6-1">
          <mxGeometry x="300" y="803" width="119" height="20" as="geometry" />
        </mxCell>
        <mxCell id="-c4P-sNR4xDieSdSL6eb-23" value="SAS/SATA SSD/HDD" style="rounded=1;whiteSpace=wrap;html=1;fillColor=#dae8fc;" vertex="1" parent="2WEzYPmRJhzXDSVYC9c6-1">
          <mxGeometry x="48" y="803" width="119" height="20" as="geometry" />
        </mxCell>
        <mxCell id="-c4P-sNR4xDieSdSL6eb-24" value="" style="endArrow=none;html=1;exitX=0.5;exitY=0;exitDx=0;exitDy=0;entryX=0.5;entryY=1;entryDx=0;entryDy=0;" edge="1" parent="2WEzYPmRJhzXDSVYC9c6-1">
          <mxGeometry width="50" height="50" relative="1" as="geometry">
            <mxPoint x="108.49999999999989" y="803" as="sourcePoint" />
            <mxPoint x="108.49999999999989" y="783" as="targetPoint" />
          </mxGeometry>
        </mxCell>
        <mxCell id="-c4P-sNR4xDieSdSL6eb-25" value="" style="endArrow=none;html=1;exitX=0.5;exitY=0;exitDx=0;exitDy=0;entryX=0.5;entryY=1;entryDx=0;entryDy=0;" edge="1" parent="2WEzYPmRJhzXDSVYC9c6-1">
          <mxGeometry width="50" height="50" relative="1" as="geometry">
            <mxPoint x="351.79999999999995" y="803" as="sourcePoint" />
            <mxPoint x="351.79999999999995" y="783" as="targetPoint" />
          </mxGeometry>
        </mxCell>
        <mxCell id="-c4P-sNR4xDieSdSL6eb-26" value="HBA Controller" style="rounded=1;whiteSpace=wrap;html=1;fillColor=#CCFFE6;" vertex="1" parent="2WEzYPmRJhzXDSVYC9c6-1">
          <mxGeometry x="65" y="868" width="90" height="20" as="geometry" />
        </mxCell>
        <mxCell id="-c4P-sNR4xDieSdSL6eb-27" value="" style="endArrow=none;html=1;exitX=0.5;exitY=0;exitDx=0;exitDy=0;entryX=0.5;entryY=1;entryDx=0;entryDy=0;" edge="1" parent="2WEzYPmRJhzXDSVYC9c6-1" target="-c4P-sNR4xDieSdSL6eb-26">
          <mxGeometry width="50" height="50" relative="1" as="geometry">
            <mxPoint x="110" y="908" as="sourcePoint" />
            <mxPoint x="60" y="868" as="targetPoint" />
          </mxGeometry>
        </mxCell>
        <mxCell id="-c4P-sNR4xDieSdSL6eb-28" value="" style="endArrow=none;html=1;exitX=0.993;exitY=0.508;exitDx=0;exitDy=0;exitPerimeter=0;" edge="1" parent="2WEzYPmRJhzXDSVYC9c6-1">
          <mxGeometry width="50" height="50" relative="1" as="geometry">
            <mxPoint x="151.37" y="918.1600000000001" as="sourcePoint" />
            <mxPoint x="182.0000000000001" y="918" as="targetPoint" />
          </mxGeometry>
        </mxCell>
        <mxCell id="-c4P-sNR4xDieSdSL6eb-29" value="" style="endArrow=none;html=1;entryX=0;entryY=0.5;entryDx=0;entryDy=0;exitX=1;exitY=0.5;exitDx=0;exitDy=0;" edge="1" parent="2WEzYPmRJhzXDSVYC9c6-1">
          <mxGeometry width="50" height="50" relative="1" as="geometry">
            <mxPoint x="271" y="918" as="sourcePoint" />
            <mxPoint x="301.9999999999998" y="918" as="targetPoint" />
          </mxGeometry>
        </mxCell>
        <mxCell id="-c4P-sNR4xDieSdSL6eb-30" value="LSI Expander" style="rounded=1;whiteSpace=wrap;html=1;fillColor=#f8cecc;" vertex="1" parent="2WEzYPmRJhzXDSVYC9c6-1">
          <mxGeometry x="302" y="906" width="90" height="20" as="geometry" />
        </mxCell>
        <mxCell id="-c4P-sNR4xDieSdSL6eb-31" value="DUT" style="rounded=1;whiteSpace=wrap;html=1;fillColor=#FFB570;" vertex="1" parent="2WEzYPmRJhzXDSVYC9c6-1">
          <mxGeometry x="182" y="908" width="90" height="20" as="geometry" />
        </mxCell>
        <mxCell id="-c4P-sNR4xDieSdSL6eb-32" value="SAS/SATA SSD/HDD" style="rounded=1;whiteSpace=wrap;html=1;fillColor=#dae8fc;" vertex="1" parent="2WEzYPmRJhzXDSVYC9c6-1">
          <mxGeometry x="167.5" y="948" width="119" height="20" as="geometry" />
        </mxCell>
        <mxCell id="-c4P-sNR4xDieSdSL6eb-33" value="" style="endArrow=none;html=1;entryX=0.5;entryY=1;entryDx=0;entryDy=0;" edge="1" parent="2WEzYPmRJhzXDSVYC9c6-1">
          <mxGeometry width="50" height="50" relative="1" as="geometry">
            <mxPoint x="227.0000000000001" y="947.9999999999998" as="sourcePoint" />
            <mxPoint x="226.79999999999995" y="928" as="targetPoint" />
          </mxGeometry>
        </mxCell>
        <mxCell id="-c4P-sNR4xDieSdSL6eb-34" value="SAS/SATA SSD/HDD" style="rounded=1;whiteSpace=wrap;html=1;fillColor=#dae8fc;" vertex="1" parent="2WEzYPmRJhzXDSVYC9c6-1">
          <mxGeometry x="295" y="948" width="119" height="20" as="geometry" />
        </mxCell>
        <mxCell id="-c4P-sNR4xDieSdSL6eb-35" value="SAS/SATA SSD/HDD" style="rounded=1;whiteSpace=wrap;html=1;fillColor=#dae8fc;" vertex="1" parent="2WEzYPmRJhzXDSVYC9c6-1">
          <mxGeometry x="43" y="948" width="119" height="20" as="geometry" />
        </mxCell>
        <mxCell id="-c4P-sNR4xDieSdSL6eb-36" value="" style="endArrow=none;html=1;exitX=0.5;exitY=0;exitDx=0;exitDy=0;entryX=0.5;entryY=1;entryDx=0;entryDy=0;" edge="1" parent="2WEzYPmRJhzXDSVYC9c6-1">
          <mxGeometry width="50" height="50" relative="1" as="geometry">
            <mxPoint x="103.49999999999989" y="947.9999999999998" as="sourcePoint" />
            <mxPoint x="103.49999999999989" y="928" as="targetPoint" />
          </mxGeometry>
        </mxCell>
        <mxCell id="-c4P-sNR4xDieSdSL6eb-37" value="" style="endArrow=none;html=1;exitX=0.5;exitY=0;exitDx=0;exitDy=0;entryX=0.5;entryY=1;entryDx=0;entryDy=0;" edge="1" parent="2WEzYPmRJhzXDSVYC9c6-1">
          <mxGeometry width="50" height="50" relative="1" as="geometry">
            <mxPoint x="346.79999999999995" y="947.9999999999998" as="sourcePoint" />
            <mxPoint x="346.79999999999995" y="928" as="targetPoint" />
          </mxGeometry>
        </mxCell>
        <mxCell id="-c4P-sNR4xDieSdSL6eb-38" value="LSI Expander" style="rounded=1;whiteSpace=wrap;html=1;fillColor=#f8cecc;" vertex="1" parent="2WEzYPmRJhzXDSVYC9c6-1">
          <mxGeometry x="61" y="908" width="90" height="20" as="geometry" />
        </mxCell>
        <mxCell id="bjyBsjyIXptbO7V5PjIs-0" value="HBA Controller" style="rounded=1;whiteSpace=wrap;html=1;fillColor=#CCFFE6;" vertex="1" parent="2WEzYPmRJhzXDSVYC9c6-1">
          <mxGeometry x="59" y="1021" width="90" height="20" as="geometry" />
        </mxCell>
        <mxCell id="bjyBsjyIXptbO7V5PjIs-1" value="" style="endArrow=none;html=1;exitX=0.5;exitY=0;exitDx=0;exitDy=0;entryX=0.5;entryY=1;entryDx=0;entryDy=0;" edge="1" parent="2WEzYPmRJhzXDSVYC9c6-1" target="bjyBsjyIXptbO7V5PjIs-0">
          <mxGeometry width="50" height="50" relative="1" as="geometry">
            <mxPoint x="104" y="1061" as="sourcePoint" />
            <mxPoint x="54" y="1021" as="targetPoint" />
          </mxGeometry>
        </mxCell>
        <mxCell id="bjyBsjyIXptbO7V5PjIs-2" value="" style="endArrow=none;html=1;exitX=0.993;exitY=0.508;exitDx=0;exitDy=0;exitPerimeter=0;" edge="1" parent="2WEzYPmRJhzXDSVYC9c6-1">
          <mxGeometry width="50" height="50" relative="1" as="geometry">
            <mxPoint x="145.3699999999999" y="1071.16" as="sourcePoint" />
            <mxPoint x="176" y="1071" as="targetPoint" />
          </mxGeometry>
        </mxCell>
        <mxCell id="bjyBsjyIXptbO7V5PjIs-3" value="" style="endArrow=none;html=1;entryX=0;entryY=0.5;entryDx=0;entryDy=0;exitX=1;exitY=0.5;exitDx=0;exitDy=0;" edge="1" parent="2WEzYPmRJhzXDSVYC9c6-1">
          <mxGeometry width="50" height="50" relative="1" as="geometry">
            <mxPoint x="265" y="1071" as="sourcePoint" />
            <mxPoint x="295.9999999999998" y="1071" as="targetPoint" />
          </mxGeometry>
        </mxCell>
        <mxCell id="bjyBsjyIXptbO7V5PjIs-5" value="DUT" style="rounded=1;whiteSpace=wrap;html=1;fillColor=#FFB570;" vertex="1" parent="2WEzYPmRJhzXDSVYC9c6-1">
          <mxGeometry x="176" y="1061" width="90" height="20" as="geometry" />
        </mxCell>
        <mxCell id="bjyBsjyIXptbO7V5PjIs-6" value="SAS/SATA SSD/HDD" style="rounded=1;whiteSpace=wrap;html=1;fillColor=#dae8fc;" vertex="1" parent="2WEzYPmRJhzXDSVYC9c6-1">
          <mxGeometry x="161.5" y="1101" width="119" height="20" as="geometry" />
        </mxCell>
        <mxCell id="bjyBsjyIXptbO7V5PjIs-7" value="" style="endArrow=none;html=1;entryX=0.5;entryY=1;entryDx=0;entryDy=0;" edge="1" parent="2WEzYPmRJhzXDSVYC9c6-1">
          <mxGeometry width="50" height="50" relative="1" as="geometry">
            <mxPoint x="221" y="1100.9999999999998" as="sourcePoint" />
            <mxPoint x="220.79999999999995" y="1081" as="targetPoint" />
          </mxGeometry>
        </mxCell>
        <mxCell id="bjyBsjyIXptbO7V5PjIs-8" value="SAS/SATA SSD/HDD" style="rounded=1;whiteSpace=wrap;html=1;fillColor=#dae8fc;" vertex="1" parent="2WEzYPmRJhzXDSVYC9c6-1">
          <mxGeometry x="289" y="1101" width="119" height="20" as="geometry" />
        </mxCell>
        <mxCell id="bjyBsjyIXptbO7V5PjIs-9" value="SAS/SATA SSD/HDD" style="rounded=1;whiteSpace=wrap;html=1;fillColor=#dae8fc;" vertex="1" parent="2WEzYPmRJhzXDSVYC9c6-1">
          <mxGeometry x="37" y="1101" width="119" height="20" as="geometry" />
        </mxCell>
        <mxCell id="bjyBsjyIXptbO7V5PjIs-10" value="" style="endArrow=none;html=1;exitX=0.5;exitY=0;exitDx=0;exitDy=0;entryX=0.5;entryY=1;entryDx=0;entryDy=0;" edge="1" parent="2WEzYPmRJhzXDSVYC9c6-1">
          <mxGeometry width="50" height="50" relative="1" as="geometry">
            <mxPoint x="97.5" y="1100.9999999999998" as="sourcePoint" />
            <mxPoint x="97.5" y="1081" as="targetPoint" />
          </mxGeometry>
        </mxCell>
        <mxCell id="bjyBsjyIXptbO7V5PjIs-11" value="" style="endArrow=none;html=1;exitX=0.5;exitY=0;exitDx=0;exitDy=0;entryX=0.5;entryY=1;entryDx=0;entryDy=0;" edge="1" parent="2WEzYPmRJhzXDSVYC9c6-1">
          <mxGeometry width="50" height="50" relative="1" as="geometry">
            <mxPoint x="340.79999999999995" y="1100.9999999999998" as="sourcePoint" />
            <mxPoint x="340.79999999999995" y="1081" as="targetPoint" />
          </mxGeometry>
        </mxCell>
        <mxCell id="bjyBsjyIXptbO7V5PjIs-12" value="LSI Expander" style="rounded=1;whiteSpace=wrap;html=1;fillColor=#f8cecc;" vertex="1" parent="2WEzYPmRJhzXDSVYC9c6-1">
          <mxGeometry x="55" y="1061" width="90" height="20" as="geometry" />
        </mxCell>
        <mxCell id="bjyBsjyIXptbO7V5PjIs-13" value="DUT" style="rounded=1;whiteSpace=wrap;html=1;fillColor=#FFB570;" vertex="1" parent="2WEzYPmRJhzXDSVYC9c6-1">
          <mxGeometry x="295" y="1061" width="90" height="20" as="geometry" />
        </mxCell>
        <mxCell id="bjyBsjyIXptbO7V5PjIs-14" value="HBA Controller" style="rounded=1;whiteSpace=wrap;html=1;fillColor=#CCFFE6;" vertex="1" parent="2WEzYPmRJhzXDSVYC9c6-1">
          <mxGeometry x="55" y="1175" width="90" height="20" as="geometry" />
        </mxCell>
        <mxCell id="bjyBsjyIXptbO7V5PjIs-15" value="" style="endArrow=none;html=1;exitX=0.5;exitY=0;exitDx=0;exitDy=0;entryX=0.5;entryY=1;entryDx=0;entryDy=0;" edge="1" parent="2WEzYPmRJhzXDSVYC9c6-1" target="bjyBsjyIXptbO7V5PjIs-14">
          <mxGeometry width="50" height="50" relative="1" as="geometry">
            <mxPoint x="99.99999999999989" y="1214.9999999999998" as="sourcePoint" />
            <mxPoint x="50" y="1175" as="targetPoint" />
          </mxGeometry>
        </mxCell>
        <mxCell id="bjyBsjyIXptbO7V5PjIs-16" value="" style="endArrow=none;html=1;exitX=0.993;exitY=0.508;exitDx=0;exitDy=0;exitPerimeter=0;" edge="1" parent="2WEzYPmRJhzXDSVYC9c6-1">
          <mxGeometry width="50" height="50" relative="1" as="geometry">
            <mxPoint x="141.3699999999999" y="1225.16" as="sourcePoint" />
            <mxPoint x="172" y="1224.9999999999998" as="targetPoint" />
          </mxGeometry>
        </mxCell>
        <mxCell id="bjyBsjyIXptbO7V5PjIs-17" value="" style="endArrow=none;html=1;entryX=0;entryY=0.5;entryDx=0;entryDy=0;exitX=1;exitY=0.5;exitDx=0;exitDy=0;" edge="1" parent="2WEzYPmRJhzXDSVYC9c6-1">
          <mxGeometry width="50" height="50" relative="1" as="geometry">
            <mxPoint x="261" y="1224.9999999999998" as="sourcePoint" />
            <mxPoint x="291.9999999999999" y="1224.9999999999998" as="targetPoint" />
          </mxGeometry>
        </mxCell>
        <mxCell id="bjyBsjyIXptbO7V5PjIs-19" value="SAS/SATA SSD/HDD" style="rounded=1;whiteSpace=wrap;html=1;fillColor=#dae8fc;" vertex="1" parent="2WEzYPmRJhzXDSVYC9c6-1">
          <mxGeometry x="157.5" y="1255" width="119" height="20" as="geometry" />
        </mxCell>
        <mxCell id="bjyBsjyIXptbO7V5PjIs-20" value="" style="endArrow=none;html=1;entryX=0.5;entryY=1;entryDx=0;entryDy=0;" edge="1" parent="2WEzYPmRJhzXDSVYC9c6-1">
          <mxGeometry width="50" height="50" relative="1" as="geometry">
            <mxPoint x="217" y="1254.9999999999998" as="sourcePoint" />
            <mxPoint x="216.80000000000007" y="1234.9999999999998" as="targetPoint" />
          </mxGeometry>
        </mxCell>
        <mxCell id="bjyBsjyIXptbO7V5PjIs-21" value="SAS/SATA SSD/HDD" style="rounded=1;whiteSpace=wrap;html=1;fillColor=#dae8fc;" vertex="1" parent="2WEzYPmRJhzXDSVYC9c6-1">
          <mxGeometry x="285" y="1255" width="119" height="20" as="geometry" />
        </mxCell>
        <mxCell id="bjyBsjyIXptbO7V5PjIs-22" value="SAS/SATA SSD/HDD" style="rounded=1;whiteSpace=wrap;html=1;fillColor=#dae8fc;" vertex="1" parent="2WEzYPmRJhzXDSVYC9c6-1">
          <mxGeometry x="33" y="1255" width="119" height="20" as="geometry" />
        </mxCell>
        <mxCell id="bjyBsjyIXptbO7V5PjIs-23" value="" style="endArrow=none;html=1;exitX=0.5;exitY=0;exitDx=0;exitDy=0;entryX=0.5;entryY=1;entryDx=0;entryDy=0;" edge="1" parent="2WEzYPmRJhzXDSVYC9c6-1">
          <mxGeometry width="50" height="50" relative="1" as="geometry">
            <mxPoint x="93.5" y="1254.9999999999998" as="sourcePoint" />
            <mxPoint x="93.5" y="1234.9999999999998" as="targetPoint" />
          </mxGeometry>
        </mxCell>
        <mxCell id="bjyBsjyIXptbO7V5PjIs-24" value="" style="endArrow=none;html=1;exitX=0.5;exitY=0;exitDx=0;exitDy=0;entryX=0.5;entryY=1;entryDx=0;entryDy=0;" edge="1" parent="2WEzYPmRJhzXDSVYC9c6-1">
          <mxGeometry width="50" height="50" relative="1" as="geometry">
            <mxPoint x="336.80000000000007" y="1254.9999999999998" as="sourcePoint" />
            <mxPoint x="336.80000000000007" y="1234.9999999999998" as="targetPoint" />
          </mxGeometry>
        </mxCell>
        <mxCell id="bjyBsjyIXptbO7V5PjIs-26" value="DUT" style="rounded=1;whiteSpace=wrap;html=1;fillColor=#FFB570;" vertex="1" parent="2WEzYPmRJhzXDSVYC9c6-1">
          <mxGeometry x="291" y="1215" width="90" height="20" as="geometry" />
        </mxCell>
        <mxCell id="bjyBsjyIXptbO7V5PjIs-27" value="DUT" style="rounded=1;whiteSpace=wrap;html=1;fillColor=#FFB570;" vertex="1" parent="2WEzYPmRJhzXDSVYC9c6-1">
          <mxGeometry x="51.5" y="1215" width="90" height="20" as="geometry" />
        </mxCell>
        <mxCell id="bjyBsjyIXptbO7V5PjIs-28" value="LSI Expander" style="rounded=1;whiteSpace=wrap;html=1;fillColor=#f8cecc;" vertex="1" parent="2WEzYPmRJhzXDSVYC9c6-1">
          <mxGeometry x="172.5" y="1215" width="90" height="20" as="geometry" />
        </mxCell>
        <mxCell id="bjyBsjyIXptbO7V5PjIs-29" value="HBA Controller" style="rounded=1;whiteSpace=wrap;html=1;fillColor=#CCFFE6;" vertex="1" parent="2WEzYPmRJhzXDSVYC9c6-1">
          <mxGeometry x="51" y="1320" width="90" height="20" as="geometry" />
        </mxCell>
        <mxCell id="bjyBsjyIXptbO7V5PjIs-30" value="" style="endArrow=none;html=1;exitX=0.5;exitY=0;exitDx=0;exitDy=0;entryX=0.5;entryY=1;entryDx=0;entryDy=0;" edge="1" parent="2WEzYPmRJhzXDSVYC9c6-1" target="bjyBsjyIXptbO7V5PjIs-29">
          <mxGeometry width="50" height="50" relative="1" as="geometry">
            <mxPoint x="96" y="1359.9999999999998" as="sourcePoint" />
            <mxPoint x="46" y="1320" as="targetPoint" />
          </mxGeometry>
        </mxCell>
        <mxCell id="bjyBsjyIXptbO7V5PjIs-31" value="" style="endArrow=none;html=1;exitX=0.993;exitY=0.508;exitDx=0;exitDy=0;exitPerimeter=0;" edge="1" parent="2WEzYPmRJhzXDSVYC9c6-1">
          <mxGeometry width="50" height="50" relative="1" as="geometry">
            <mxPoint x="137.3699999999999" y="1370.1599999999999" as="sourcePoint" />
            <mxPoint x="168" y="1369.9999999999998" as="targetPoint" />
          </mxGeometry>
        </mxCell>
        <mxCell id="bjyBsjyIXptbO7V5PjIs-32" value="" style="endArrow=none;html=1;entryX=0;entryY=0.5;entryDx=0;entryDy=0;exitX=1;exitY=0.5;exitDx=0;exitDy=0;" edge="1" parent="2WEzYPmRJhzXDSVYC9c6-1">
          <mxGeometry width="50" height="50" relative="1" as="geometry">
            <mxPoint x="257" y="1369.9999999999998" as="sourcePoint" />
            <mxPoint x="287.9999999999999" y="1369.9999999999998" as="targetPoint" />
          </mxGeometry>
        </mxCell>
        <mxCell id="bjyBsjyIXptbO7V5PjIs-33" value="SAS/SATA SSD/HDD" style="rounded=1;whiteSpace=wrap;html=1;fillColor=#dae8fc;" vertex="1" parent="2WEzYPmRJhzXDSVYC9c6-1">
          <mxGeometry x="153.5" y="1400" width="119" height="20" as="geometry" />
        </mxCell>
        <mxCell id="bjyBsjyIXptbO7V5PjIs-34" value="" style="endArrow=none;html=1;entryX=0.5;entryY=1;entryDx=0;entryDy=0;" edge="1" parent="2WEzYPmRJhzXDSVYC9c6-1">
          <mxGeometry width="50" height="50" relative="1" as="geometry">
            <mxPoint x="213" y="1399.9999999999998" as="sourcePoint" />
            <mxPoint x="212.80000000000007" y="1379.9999999999998" as="targetPoint" />
          </mxGeometry>
        </mxCell>
        <mxCell id="bjyBsjyIXptbO7V5PjIs-35" value="SAS/SATA SSD/HDD" style="rounded=1;whiteSpace=wrap;html=1;fillColor=#dae8fc;" vertex="1" parent="2WEzYPmRJhzXDSVYC9c6-1">
          <mxGeometry x="281" y="1400" width="119" height="20" as="geometry" />
        </mxCell>
        <mxCell id="bjyBsjyIXptbO7V5PjIs-36" value="SAS/SATA SSD/HDD" style="rounded=1;whiteSpace=wrap;html=1;fillColor=#dae8fc;" vertex="1" parent="2WEzYPmRJhzXDSVYC9c6-1">
          <mxGeometry x="29" y="1400" width="119" height="20" as="geometry" />
        </mxCell>
        <mxCell id="bjyBsjyIXptbO7V5PjIs-37" value="" style="endArrow=none;html=1;exitX=0.5;exitY=0;exitDx=0;exitDy=0;entryX=0.5;entryY=1;entryDx=0;entryDy=0;" edge="1" parent="2WEzYPmRJhzXDSVYC9c6-1">
          <mxGeometry width="50" height="50" relative="1" as="geometry">
            <mxPoint x="89.5" y="1399.9999999999998" as="sourcePoint" />
            <mxPoint x="89.5" y="1379.9999999999998" as="targetPoint" />
          </mxGeometry>
        </mxCell>
        <mxCell id="bjyBsjyIXptbO7V5PjIs-38" value="" style="endArrow=none;html=1;exitX=0.5;exitY=0;exitDx=0;exitDy=0;entryX=0.5;entryY=1;entryDx=0;entryDy=0;" edge="1" parent="2WEzYPmRJhzXDSVYC9c6-1">
          <mxGeometry width="50" height="50" relative="1" as="geometry">
            <mxPoint x="332.80000000000007" y="1399.9999999999998" as="sourcePoint" />
            <mxPoint x="332.80000000000007" y="1379.9999999999998" as="targetPoint" />
          </mxGeometry>
        </mxCell>
        <mxCell id="bjyBsjyIXptbO7V5PjIs-40" value="DUT" style="rounded=1;whiteSpace=wrap;html=1;fillColor=#FFB570;" vertex="1" parent="2WEzYPmRJhzXDSVYC9c6-1">
          <mxGeometry x="47.5" y="1360" width="90" height="20" as="geometry" />
        </mxCell>
        <mxCell id="bjyBsjyIXptbO7V5PjIs-42" value="LSI Expander" style="rounded=1;whiteSpace=wrap;html=1;fillColor=#f8cecc;" vertex="1" parent="2WEzYPmRJhzXDSVYC9c6-1">
          <mxGeometry x="289" y="1360" width="90" height="20" as="geometry" />
        </mxCell>
        <mxCell id="bjyBsjyIXptbO7V5PjIs-43" value="DUT" style="rounded=1;whiteSpace=wrap;html=1;fillColor=#FFB570;" vertex="1" parent="2WEzYPmRJhzXDSVYC9c6-1">
          <mxGeometry x="168" y="1360" width="90" height="20" as="geometry" />
        </mxCell>
      </root>
    </mxGraphModel>
  </diagram>
  <diagram id="VUPU7g4YqttE0FsU8dl0" name="一级和两级">
    <mxGraphModel dx="638" dy="353" grid="0" gridSize="10" guides="1" tooltips="1" connect="1" arrows="1" fold="1" page="1" pageScale="1" pageWidth="827" pageHeight="1169" math="0" shadow="0">
      <root>
        <mxCell id="Bv8ENfov2TBLwExwfWfi-0" />
        <mxCell id="Bv8ENfov2TBLwExwfWfi-1" parent="Bv8ENfov2TBLwExwfWfi-0" />
        <mxCell id="ClOhBbN2euxLq8YwgHaT-0" value="HBA Controller" style="rounded=1;whiteSpace=wrap;html=1;strokeColor=#006EAF;fillColor=#CCFFE6;" vertex="1" parent="Bv8ENfov2TBLwExwfWfi-1">
          <mxGeometry x="58.5" y="210" width="90" height="20" as="geometry" />
        </mxCell>
        <mxCell id="ClOhBbN2euxLq8YwgHaT-1" value="" style="endArrow=none;html=1;exitX=0.5;exitY=0;exitDx=0;exitDy=0;entryX=0.5;entryY=1;entryDx=0;entryDy=0;" edge="1" parent="Bv8ENfov2TBLwExwfWfi-1" target="ClOhBbN2euxLq8YwgHaT-0">
          <mxGeometry width="50" height="50" relative="1" as="geometry">
            <mxPoint x="103.50000000000011" y="249.9999999999999" as="sourcePoint" />
            <mxPoint x="53.5" y="210" as="targetPoint" />
          </mxGeometry>
        </mxCell>
        <mxCell id="ClOhBbN2euxLq8YwgHaT-2" value="DUT" style="rounded=1;whiteSpace=wrap;html=1;fontColor=#000000;fillColor=#FFB570;" vertex="1" parent="Bv8ENfov2TBLwExwfWfi-1">
          <mxGeometry x="217" y="250" width="90" height="20" as="geometry" />
        </mxCell>
        <mxCell id="ClOhBbN2euxLq8YwgHaT-4" style="edgeStyle=none;shape=link;rounded=0;orthogonalLoop=1;jettySize=auto;html=1;exitX=1;exitY=0.5;exitDx=0;exitDy=0;" edge="1" parent="Bv8ENfov2TBLwExwfWfi-1">
          <mxGeometry relative="1" as="geometry">
            <mxPoint x="355.5" y="301.5000000000001" as="sourcePoint" />
            <mxPoint x="355.5" y="301.5000000000001" as="targetPoint" />
          </mxGeometry>
        </mxCell>
        <mxCell id="ClOhBbN2euxLq8YwgHaT-5" value="SAS/SATA SSD/HDD" style="rounded=1;whiteSpace=wrap;html=1;fillColor=#dae8fc;strokeColor=#6c8ebf;" vertex="1" parent="Bv8ENfov2TBLwExwfWfi-1">
          <mxGeometry x="40" y="290" width="130" height="20" as="geometry" />
        </mxCell>
        <mxCell id="ClOhBbN2euxLq8YwgHaT-6" value="SAS/SATA SSD/HDD" style="rounded=1;whiteSpace=wrap;html=1;fillColor=#dae8fc;strokeColor=#6c8ebf;" vertex="1" parent="Bv8ENfov2TBLwExwfWfi-1">
          <mxGeometry x="197" y="290" width="130" height="20" as="geometry" />
        </mxCell>
        <mxCell id="ClOhBbN2euxLq8YwgHaT-7" value="" style="endArrow=none;html=1;exitX=0.5;exitY=0;exitDx=0;exitDy=0;entryX=0.5;entryY=1;entryDx=0;entryDy=0;" edge="1" parent="Bv8ENfov2TBLwExwfWfi-1">
          <mxGeometry width="50" height="50" relative="1" as="geometry">
            <mxPoint x="103.2600000000001" y="289.9999999999999" as="sourcePoint" />
            <mxPoint x="103.2600000000001" y="269.9999999999999" as="targetPoint" />
          </mxGeometry>
        </mxCell>
        <mxCell id="ClOhBbN2euxLq8YwgHaT-8" value="" style="endArrow=none;html=1;entryX=0.5;entryY=1;entryDx=0;entryDy=0;exitX=0.5;exitY=0;exitDx=0;exitDy=0;" edge="1" parent="Bv8ENfov2TBLwExwfWfi-1" source="ClOhBbN2euxLq8YwgHaT-6">
          <mxGeometry width="50" height="50" relative="1" as="geometry">
            <mxPoint x="262" y="285" as="sourcePoint" />
            <mxPoint x="261.76" y="269.9999999999999" as="targetPoint" />
          </mxGeometry>
        </mxCell>
        <mxCell id="ClOhBbN2euxLq8YwgHaT-9" value="" style="endArrow=none;html=1;exitX=1;exitY=0.5;exitDx=0;exitDy=0;entryX=0;entryY=0.5;entryDx=0;entryDy=0;" edge="1" parent="Bv8ENfov2TBLwExwfWfi-1" target="ClOhBbN2euxLq8YwgHaT-2">
          <mxGeometry width="50" height="50" relative="1" as="geometry">
            <mxPoint x="148.5" y="260" as="sourcePoint" />
            <mxPoint x="224.5" y="253" as="targetPoint" />
          </mxGeometry>
        </mxCell>
        <mxCell id="UvWdaU7UYpi-Hwft4O_g-0" value="LSI Expander" style="rounded=1;whiteSpace=wrap;html=1;fillColor=#f8cecc;" vertex="1" parent="Bv8ENfov2TBLwExwfWfi-1">
          <mxGeometry x="58.5" y="250" width="90" height="20" as="geometry" />
        </mxCell>
        <mxCell id="UvWdaU7UYpi-Hwft4O_g-1" value="HBA Controller" style="rounded=1;whiteSpace=wrap;html=1;strokeColor=#006EAF;fillColor=#CCFFE6;" vertex="1" parent="Bv8ENfov2TBLwExwfWfi-1">
          <mxGeometry x="58.5" y="348" width="90" height="20" as="geometry" />
        </mxCell>
        <mxCell id="UvWdaU7UYpi-Hwft4O_g-2" value="" style="endArrow=none;html=1;exitX=0.5;exitY=0;exitDx=0;exitDy=0;entryX=0.5;entryY=1;entryDx=0;entryDy=0;" edge="1" parent="Bv8ENfov2TBLwExwfWfi-1" target="UvWdaU7UYpi-Hwft4O_g-1">
          <mxGeometry width="50" height="50" relative="1" as="geometry">
            <mxPoint x="103.50000000000011" y="387.9999999999999" as="sourcePoint" />
            <mxPoint x="53.5" y="348" as="targetPoint" />
          </mxGeometry>
        </mxCell>
        <mxCell id="UvWdaU7UYpi-Hwft4O_g-4" value="SAS/SATA SSD/HDD" style="rounded=1;whiteSpace=wrap;html=1;fillColor=#dae8fc;strokeColor=#6c8ebf;" vertex="1" parent="Bv8ENfov2TBLwExwfWfi-1">
          <mxGeometry x="40" y="428" width="130" height="20" as="geometry" />
        </mxCell>
        <mxCell id="UvWdaU7UYpi-Hwft4O_g-5" value="SAS/SATA SSD/HDD" style="rounded=1;whiteSpace=wrap;html=1;fillColor=#dae8fc;strokeColor=#6c8ebf;" vertex="1" parent="Bv8ENfov2TBLwExwfWfi-1">
          <mxGeometry x="197" y="428" width="130" height="20" as="geometry" />
        </mxCell>
        <mxCell id="UvWdaU7UYpi-Hwft4O_g-6" value="" style="endArrow=none;html=1;exitX=0.5;exitY=0;exitDx=0;exitDy=0;entryX=0.5;entryY=1;entryDx=0;entryDy=0;" edge="1" parent="Bv8ENfov2TBLwExwfWfi-1">
          <mxGeometry width="50" height="50" relative="1" as="geometry">
            <mxPoint x="103.26000000000022" y="427.9999999999999" as="sourcePoint" />
            <mxPoint x="103.26000000000022" y="407.9999999999999" as="targetPoint" />
          </mxGeometry>
        </mxCell>
        <mxCell id="UvWdaU7UYpi-Hwft4O_g-7" value="" style="endArrow=none;html=1;entryX=0.5;entryY=1;entryDx=0;entryDy=0;exitX=0.5;exitY=0;exitDx=0;exitDy=0;" edge="1" parent="Bv8ENfov2TBLwExwfWfi-1" source="UvWdaU7UYpi-Hwft4O_g-5">
          <mxGeometry width="50" height="50" relative="1" as="geometry">
            <mxPoint x="262" y="423" as="sourcePoint" />
            <mxPoint x="261.7600000000001" y="407.9999999999999" as="targetPoint" />
          </mxGeometry>
        </mxCell>
        <mxCell id="UvWdaU7UYpi-Hwft4O_g-8" value="" style="endArrow=none;html=1;exitX=1;exitY=0.5;exitDx=0;exitDy=0;entryX=0;entryY=0.5;entryDx=0;entryDy=0;" edge="1" parent="Bv8ENfov2TBLwExwfWfi-1">
          <mxGeometry width="50" height="50" relative="1" as="geometry">
            <mxPoint x="148.5" y="398" as="sourcePoint" />
            <mxPoint x="217" y="398" as="targetPoint" />
          </mxGeometry>
        </mxCell>
        <mxCell id="UvWdaU7UYpi-Hwft4O_g-10" value="LSI Expander" style="rounded=1;whiteSpace=wrap;html=1;fillColor=#f8cecc;" vertex="1" parent="Bv8ENfov2TBLwExwfWfi-1">
          <mxGeometry x="217" y="388" width="90" height="20" as="geometry" />
        </mxCell>
        <mxCell id="UvWdaU7UYpi-Hwft4O_g-11" value="DUT" style="rounded=1;whiteSpace=wrap;html=1;fontColor=#000000;fillColor=#FFB570;" vertex="1" parent="Bv8ENfov2TBLwExwfWfi-1">
          <mxGeometry x="58.5" y="388" width="90" height="20" as="geometry" />
        </mxCell>
        <mxCell id="KErpKDIMbwoC2q_0cpbl-0" value="HBA Controller" style="rounded=1;whiteSpace=wrap;html=1;strokeColor=#006EAF;fillColor=#CCFFE6;" vertex="1" parent="Bv8ENfov2TBLwExwfWfi-1">
          <mxGeometry x="53.5" y="493" width="90" height="20" as="geometry" />
        </mxCell>
        <mxCell id="KErpKDIMbwoC2q_0cpbl-1" value="" style="endArrow=none;html=1;exitX=0.5;exitY=0;exitDx=0;exitDy=0;entryX=0.5;entryY=1;entryDx=0;entryDy=0;" edge="1" parent="Bv8ENfov2TBLwExwfWfi-1" target="KErpKDIMbwoC2q_0cpbl-0">
          <mxGeometry width="50" height="50" relative="1" as="geometry">
            <mxPoint x="98.50000000000011" y="532.9999999999999" as="sourcePoint" />
            <mxPoint x="48.5" y="493" as="targetPoint" />
          </mxGeometry>
        </mxCell>
        <mxCell id="KErpKDIMbwoC2q_0cpbl-2" value="SAS/SATA SSD/HDD" style="rounded=1;whiteSpace=wrap;html=1;fillColor=#dae8fc;strokeColor=#6c8ebf;" vertex="1" parent="Bv8ENfov2TBLwExwfWfi-1">
          <mxGeometry x="35" y="573" width="130" height="20" as="geometry" />
        </mxCell>
        <mxCell id="KErpKDIMbwoC2q_0cpbl-4" value="" style="endArrow=none;html=1;exitX=0.5;exitY=0;exitDx=0;exitDy=0;entryX=0.5;entryY=1;entryDx=0;entryDy=0;" edge="1" parent="Bv8ENfov2TBLwExwfWfi-1">
          <mxGeometry width="50" height="50" relative="1" as="geometry">
            <mxPoint x="98.26000000000022" y="572.9999999999999" as="sourcePoint" />
            <mxPoint x="98.26000000000022" y="552.9999999999999" as="targetPoint" />
          </mxGeometry>
        </mxCell>
        <mxCell id="KErpKDIMbwoC2q_0cpbl-8" value="DUT" style="rounded=1;whiteSpace=wrap;html=1;fontColor=#000000;fillColor=#FFB570;" vertex="1" parent="Bv8ENfov2TBLwExwfWfi-1">
          <mxGeometry x="53.5" y="533" width="90" height="20" as="geometry" />
        </mxCell>
      </root>
    </mxGraphModel>
  </diagram>
</mxfile>
